<svg xmlns="http://www.w3.org/2000/svg" width="256" height="256"><path fill="#1976D2" fill-opacity=".016" fill-rule="evenodd" d="M0 128.004v128.004l128.25-.254 128.25-.254.254-127.75L257.008 0H0zm.485.496c0 70.4.119 99.053.265 63.672s.146-92.98 0-128S.485 58.1.485 128.5"/><path fill="#1976D2" fill-opacity=".326" fill-rule="evenodd" d="M125.97.36c-.466.462-39.561 9.647-66.47 15.618C42.902 19.66 41 20.365 41 22.835c0 1.654 1.921 2.184 16.078 4.433 8.843 1.406 16.369 2.845 16.723 3.2.354.354.975 8.381 1.379 17.838s.96 18.099 1.236 19.204c2.031 8.138 38.554 12.776 70.854 8.998 15.595-1.825 23.717-3.794 30.248-7.336l4.982-2.702V26.5l2.75-.316c2.572-.296 2.751-.07 2.772 3.5.012 2.099.912 5.778 2 8.175S192 42.952 192 43.848c0 .897 1.238 2.924 2.75 4.505 5.89 6.156 12.783 12.635 13.449 12.641.877.008 6.79-6.247 6.796-7.189.01-1.374-9.531-9.759-11.13-9.782-.899-.013-2.353-1.119-3.231-2.458-1.04-1.588-2.731-2.545-4.858-2.75-3.711-.358-5.217-2.724-6.054-9.512l-.518-4.198 11.648-2.667c12.596-2.884 15.613-4.455 13.112-6.826-.906-.86-17.087-3.933-42.464-8.064C148.95 3.876 129.586.652 128.47.383c-1.117-.269-2.242-.28-2.5-.023M96.107 81.25c-.464 1.237-7.499 26.415-15.633 55.949l-14.79 53.699-3.592.301-3.592.301v30l31.25.264 31.25.264V191h-5.567c-4.824 0-5.502-.234-5.075-1.75.271-.963.785-3.325 1.142-5.25 1.392-7.503.387-7 13.996-7h12.362l1.13 5.75c.622 3.162 1.314 6.313 1.54 7 .294.898-1.133 1.25-5.059 1.25H130v31h71v-30.879l-3.664-.311-3.664-.31-15.32-55.5c-8.427-30.525-15.328-55.612-15.337-55.75-.008-.138-14.876-.25-33.04-.25H96.95zm25.037 55.993c-1.821 8.941-3.519 17.157-3.773 18.257-.396 1.712.012 1.975 2.833 1.827 1.813-.095 5.598-.208 8.412-.25l5.116-.077-3.616-17.675c-1.989-9.722-4.076-17.825-4.638-18.008-.584-.19-2.443 6.639-4.334 15.926m77.399 96.102c-1.044.763-1.401 1.862-.97 2.984.95 2.478 4.842 1.769 5.23-.952.366-2.569-1.989-3.693-4.26-2.032m-108.998 3.45c-.542 2.468-.993 2.751-3.85 2.418-5.048-.59-8.164 4.074-6.335 9.486.849 2.513 2.499 3.109 8.119 2.929l3.978-.128 1.633-8c.898-4.4 1.444-8.338 1.212-8.75-1.08-1.927-4.177-.596-4.757 2.045m-52.68-.089c-3.141 3.698-9.619 14.206-9.086 14.74 1.069 1.068 3.988.54 5.221-.946 1.668-2.01 6.981-1.909 8.495.162.754 1.031 1.874 1.41 2.948.998 1.432-.549 1.609-1.392 1.023-4.863-1.77-10.474-5.028-14.296-8.601-10.091m122.32-1.022c-2.037.815-3.342 5.155-2.193 7.3.545 1.019 2.405 2.164 4.133 2.543 2.086.459 2.716.953 1.874 1.473-.697.431-2.538.419-4.091-.027-2.359-.676-2.932-.473-3.474 1.234-.814 2.567.949 3.758 5.593 3.778 8.355.036 11.405-8.584 3.72-10.512-3.57-.896-2.522-2.578 1.148-1.844 2.072.414 2.988.117 3.464-1.123.356-.928.394-2.096.085-2.596-.592-.959-8.018-1.123-10.259-.226m61.536 2.325c-1.438 1.683-1.649 3.075-1.102 7.286.716 5.518 1.578 6.665 5.024 6.69 2.651.019 3.739-2.423 1.798-4.034-1.838-1.525-1.867-3.951-.048-3.951 2.028 0 2.982-3.253 1.312-4.474-.772-.564-1.359-1.476-1.304-2.026.19-1.922-3.916-1.553-5.68.509m-44.367.765c-5.684.895-7.274 9.312-2.285 12.099 3.007 1.679 7.713.858 8.62-1.504.783-2.041-1.158-3.193-4.353-2.582-2.074.396-2.464.141-2.147-1.401.296-1.437 1.14-1.827 3.543-1.64 3.531.276 5.012-1.144 3.321-3.182-1.332-1.605-3.756-2.253-6.699-1.79m-126.165 2.265c-6.279 5.849 1.633 14.276 8.733 9.303 2.142-1.5 2.21-1.772.721-2.861-.905-.662-2.815-.98-4.244-.707-2.136.409-2.532.162-2.227-1.388.236-1.2 1.273-1.925 2.85-1.994 4.475-.196 4.978-.377 4.978-1.785 0-3.152-7.609-3.552-10.811-.568m13.936.328c-4.752 5.059-1.319 10.508 6.475 10.276 4.783-.142 4.817-.168 5.602-4.143.434-2.2 1.016-4.976 1.292-6.169.472-2.034.138-2.171-5.37-2.197-4.83-.023-6.252.374-7.999 2.233m32.325.068c-3.558 5.432.737 11.739 6.936 10.183 3.377-.848 3.312-4.292-.072-3.82-1.175.164-2.398-.124-2.717-.64-.331-.536.886-.796 2.838-.607 4.661.451 6.389-1.645 4.16-5.046-2.322-3.544-8.841-3.585-11.145-.07m15.04-1.071c-1.038 3.277-2.161 10.632-1.694 11.099.295.295 1.309.537 2.252.537 1.202 0 2.059-1.368 2.866-4.572 1.461-5.804 3.729-5.515 3.25.413-.297 3.675-.09 4.159 1.781 4.159 1.165 0 2.267-.562 2.45-1.25 1.37-5.157 2.291-7.148 3.488-7.546 1.109-.368 1.243.471.677 4.248-.678 4.517-.613 4.693 1.617 4.377 1.888-.267 2.491-1.199 3.221-4.973 1.435-7.426 1.119-7.67-9.905-7.648-6.307.013-9.768.412-10.003 1.156m22.863.386c2.758 9.889 2.801 11.089.409 11.43-1.233.176-2.392 1.107-2.575 2.07-.511 2.679 4.961 2.313 7.475-.5 2.501-2.8 8.338-12.435 8.338-13.765 0-2.4-4.059-.776-5.66 2.265l-1.712 3.25-.959-3.25c-.74-2.509-1.511-3.25-3.381-3.25-1.827 0-2.303.431-1.935 1.75m51.221 2.539c-.368 2.316-.922 5.223-1.23 6.461-.472 1.894-.155 2.25 2.002 2.25 2.149 0 2.672-.579 3.235-3.579.451-2.405 1.449-3.933 3.045-4.66 1.306-.595 2.374-1.853 2.374-2.795 0-1.342-.946-1.731-4.378-1.8l-4.379-.088zm10.509.76c-1.557 7.258-1.432 8.141 1.1 7.771 2.209-.324 2.816-1.632 4.207-9.07.655-3.508.542-3.75-1.762-3.75-2.148 0-2.6.644-3.545 5.049m8.587-4.299c-.246.412-.979 3.45-1.628 6.75s-1.404 6.787-1.678 7.75c-.382 1.339.099 1.75 2.05 1.75 1.882 0 2.711-.652 3.173-2.492.512-2.039 1.063-2.383 3.027-1.89 5.416 1.359 10.027-5.464 6.909-10.224-1.303-1.988-2.403-2.394-6.487-2.394-2.705 0-5.12.338-5.366.75m-167.087 3.116c-.431.697-.513 1.537-.183 1.867.895.895 1.871-.421 1.387-1.871-.338-1.016-.574-1.016-1.204.004M100.5 243c-.34.55.335 1 1.5 1s1.84-.45 1.5-1-1.015-1-1.5-1-1.16.45-1.5 1m-32.876 1.538c-.757 1.973 2.286 3.226 3.411 1.405.458-.741.611-1.706.34-2.145-.829-1.342-3.126-.888-3.751.74M84 245c0 1.506.522 2.046 1.75 1.81.963-.186 1.75-1 1.75-1.81s-.787-1.624-1.75-1.81c-1.228-.236-1.75.304-1.75 1.81m124.624-.462c-.757 1.973 2.286 3.226 3.411 1.405.458-.741.611-1.706.34-2.145-.829-1.342-3.126-.888-3.751.74"/><path fill="#1976D2" fill-opacity=".314" fill-rule="evenodd" d="M112.5 4.572c-7.7 1.833-26.6 6.216-42 9.739-24.434 5.591-28.038 6.657-28.296 8.369-.271 1.795 1.04 2.17 15.345 4.391 8.603 1.336 16.104 2.715 16.669 3.064.595.368 1.352 8.43 1.8 19.177.426 10.198 1.104 19.076 1.507 19.728 1.304 2.11 8.87 4.843 18.031 6.512 11.986 2.185 42.896 2.16 57.757-.047 13.268-1.97 22.787-4.827 26.378-7.916l2.719-2.338.045-19.876.045-19.875h3c1.65 0 3.24-.318 3.533-.707s6.03-1.941 12.75-3.448c11.182-2.509 14.179-4.014 11.405-5.729-.681-.421-74.5-12.749-83.688-13.976-1.65-.221-9.3 1.099-17 2.932m30.25 13.09c.688.278 1.813.278 2.5 0 .688-.277.125-.504-1.25-.504s-1.937.227-1.25.504m15 1c.688.278 1.813.278 2.5 0 .688-.277.125-.504-1.25-.504s-1.937.227-1.25.504m12.5 1.027c.963.252 2.537.252 3.5 0 .963-.251.175-.457-1.75-.457s-2.713.206-1.75.457m16.563.994c.721.289 1.584.253 1.916-.079s-.258-.568-1.312-.525c-1.165.048-1.402.285-.604.604m8.437 19.06c-3.263.574-3.104 5.468.25 7.665 1.375.901 2.5 2.265 2.5 3.031s1.912 2.882 4.25 4.701c2.338 1.82 4.575 3.77 4.972 4.334.974 1.386 3.471-.246 5.496-3.591 1.551-2.562 1.496-2.696-2.669-6.5-2.339-2.135-5.219-4.333-6.401-4.883s-3.048-1.934-4.148-3.076c-1.219-1.266-2.878-1.922-4.25-1.681M96.744 81.25c-.258.688-7.141 25.55-15.296 55.25s-15.303 54.331-15.887 54.735-2.298.741-3.811.75L59 192v29h62v-29h-5.5c-6.06 0-6.013.073-4.467-7 2.207-10.1.446-9 14.415-9h12.41l1.155 5.75c.635 3.162 1.39 6.762 1.679 8 .496 2.128.221 2.25-5.084 2.25H130v29h71v-28.879l-3.673-.311-3.673-.31-14.276-52c-7.852-28.6-14.767-53.687-15.367-55.75L162.92 80h-32.853c-25.365 0-32.96.285-33.323 1.25m24.4 55c-1.733 8.387-3.43 16.713-3.772 18.5l-.622 3.25h8.625c4.744 0 8.625-.312 8.625-.693s-1.655-8.706-3.677-18.5C128.074 127.914 126.19 121 125.471 121c-.712 0-2.419 6.018-4.327 15.25m77.557 97.382c-1.574 1.575-.64 3.498 1.549 3.188 1.238-.176 2.25-.989 2.25-1.806 0-1.589-2.634-2.547-3.799-1.382m-109.018 4.203c-.503 2.517-.916 2.784-3.665 2.381-5.227-.767-8.826 4.379-6.087 8.706.527.833 2.934 1.547 5.803 1.722l4.902.299 1.129-4.721c2.53-10.59 2.554-11.222.439-11.222-1.346 0-2.13.882-2.521 2.835M160 236.283a5.14 5.14 0 0 0-2.819 4.013c-.27 2.33.225 2.976 3.25 4.24 4.912 2.052 4.568 3.715-.681 3.3-3.26-.258-4.25.013-4.25 1.164 0 2.194 7.965 2.581 11.082.538 4.058-2.658 2.581-7.538-2.282-7.538-1.378 0-2.3-.601-2.3-1.5 0-1.039 1.044-1.5 3.393-1.5 2.094 0 3.613-.574 3.969-1.5.412-1.075-.101-1.5-1.812-1.5-1.312 0-2.986-.22-3.718-.49-.733-.269-2.457.079-3.832.773M34.014 241.98c-2.234 3.289-4.324 6.664-4.645 7.5-.766 1.996 1.978 2.011 3.631.02.685-.825 2.779-1.5 4.654-1.5 2.108 0 3.628.573 3.984 1.5.317.825 1.26 1.5 2.097 1.5 1.201 0 1.39-.789.902-3.75-2.184-13.225-4.456-14.352-10.623-5.27m187.272-3.377c-1.792 2.012-2.017 3.124-1.447 7.14.634 4.469.871 4.776 3.918 5.07 2.316.224 3.243-.102 3.243-1.143 0-.801-.64-1.702-1.422-2.002-1.787-.685-.9-4.668 1.039-4.668.76 0 1.383-.675 1.383-1.5s-.45-1.5-1-1.5-1-.627-1-1.393c0-2.458-2.526-2.46-4.714-.004m-105.487 1.19c-3.899.339-4.16.701-5.357 7.457-.592 3.338-.437 3.75 1.401 3.75 1.566 0 2.224-.84 2.716-3.464.734-3.912 2.839-6.32 3.951-4.52.379.613.398 2.66.044 4.549-.562 2.995-.385 3.435 1.382 3.435 1.403 0 2.204-.845 2.605-2.75 1.405-6.68 4.009-7.498 3.873-1.216-.069 3.166.272 3.966 1.691 3.966 2.213 0 2.496-.482 3.367-5.75.638-3.85.484-4.332-1.634-5.132-1.35-.509-3.05-.509-4.023 0-.926.485-2.726.538-4 .118-1.273-.421-3.98-.62-6.016-.443m57.836 1.28c-6.476 5.094.133 12.798 7.566 8.82 1.658-.888 1.794-1.281.684-1.978-.762-.478-2.229-.606-3.26-.285-2.349.732-3.798-1.438-2.536-3.797.702-1.311 1.698-1.626 3.809-1.203 3.433.686 4.956-1.103 2.196-2.58-2.962-1.585-5.54-1.273-8.459 1.023m13.67-1.22c-.539.356-1.438 3.01-1.998 5.897-.993 5.113-.959 5.25 1.292 5.25 1.858 0 2.442-.7 2.981-3.572.467-2.49 1.389-3.846 3.045-4.475 3.555-1.352 2.966-3.54-.983-3.652-1.846-.052-3.798.196-4.337.552m9.81 1.397c-.459 1.238-1.143 3.938-1.52 6-.604 3.305-.45 3.75 1.301 3.75 2.547 0 2.843-.548 3.673-6.807.589-4.441.449-5.193-.965-5.193-.909 0-2.029 1.012-2.489 2.25m7.414-.985c-.701 2.182-2.529 11.785-2.529 13.284 0 2.534 3.905 1.677 4.578-1.005.527-2.1 1.04-2.37 3.546-1.869 3.933.786 6.876-1.898 6.876-6.271 0-1.807-.546-3.623-1.213-4.036-2.193-1.355-10.83-1.434-11.258-.103m-153.779.789c-1.13.675-1.75 2.275-1.75 4.517 0 4.232 3.407 6.375 7.722 4.858 3.356-1.18 2.663-3.03-.979-2.614-1.803.206-2.965-.231-3.361-1.263-.91-2.369 1.479-4.56 4.677-4.29 1.559.131 2.97-.212 3.137-.762.417-1.373-7.284-1.736-9.446-.446m13.285.88c-1.403 2.622-1.307 6.78.178 7.698.667.412 3.319.878 5.893 1.035l4.68.285.661-3.726c.363-2.049.891-4.513 1.174-5.476.449-1.53-.244-1.75-5.518-1.75-4.941 0-6.22.35-7.068 1.934m32.405.517c-2.087 3.185-1.547 5.631 1.636 7.418 2.768 1.554 8.473.828 7.381-.939-.344-.556-1.424-.758-2.4-.448-.981.311-2.34-.118-3.038-.959-1.101-1.327-.667-1.523 3.359-1.523 3.784 0 4.622-.326 4.622-1.8q.001-4.2-6.177-4.2c-2.905 0-4.148.566-5.383 2.451m39.017 1.299c.374 2.063.921 4.756 1.216 5.985.422 1.759-.072 2.492-2.318 3.443l-2.855 1.208 2.838.382c3.552.478 5.537-1.272 10.066-8.875 3.145-5.279 3.309-5.893 1.579-5.893-1.155 0-2.586 1.265-3.558 3.146-1.254 2.425-1.829 2.826-2.511 1.75-.486-.768-.89-2.183-.899-3.146-.009-1.109-.788-1.75-2.126-1.75-1.894 0-2.042.386-1.432 3.75m-98.492-1.208c-.91 1.096-.97 1.853-.21 2.613 1.432 1.432 3.245.195 3.245-2.214 0-2.335-1.287-2.504-3.035-.399m30.425.884c-.91 2.371.377 4.765 2.357 4.384 1.107-.213 1.753-1.249 1.753-2.81 0-2.851-3.156-4.059-4.11-1.574m16.648.028c-1.642 1.979-.54 4.789 1.709 4.356 1.091-.21 1.753-1.245 1.753-2.74 0-2.898-1.728-3.705-3.462-1.616M100 243.5c0 .833.889 1.5 2 1.5s2-.667 2-1.5-.889-1.5-2-1.5-2 .667-2 1.5m109.011-.013c-1.473 1.775-.653 4.513 1.351 4.513 1.716 0 2.795-2.428 2-4.5-.729-1.9-1.782-1.904-3.351-.013"/><path fill="#1976D2" fill-opacity=".983" fill-rule="evenodd" d="M108 6.11C90.95 10.185 47.454 20 46.45 20c-.312 0-.33.385-.039.856.291.47-.583.643-1.941.383-1.713-.327-2.47-.025-2.47.986 0 1.106 3.909 2.108 16.206 4.156 8.914 1.484 16.438 2.93 16.721 3.213s.757 6.903 1.053 14.71.93 14.809 1.408 15.559c3.068 4.809 21.672 8.123 45.654 8.131 25.477.009 46.705-3.418 55.776-9.004l3.319-2.044-.319-15.986c-.288-14.482-.154-16.039 1.423-16.538.958-.303 2.195-.27 2.75.072.555.343 1.009-.013 1.009-.791 0-.868-1.065-1.433-2.75-1.459-1.512-.023-13.55-.908-26.75-1.965q-24.002-1.922-27.405-1.011c-3.832 1.026-8.516-.486-7.85-2.532.92-2.824 5.11-3.712 10.803-2.29 2.999.748 16.477 2.107 29.952 3.02 21.044 1.425 35.49 3.088 29.809 3.432-.93.056-1.952.524-2.27 1.039-.649 1.051 1.134.795 13.286-1.904 9.256-2.056 10.135-2.516 8.212-4.3-1.056-.979-1.185-.975-.625.017.468.829-.008 1.25-1.412 1.25-1.165 0-1.86-.418-1.544-.928.643-1.041-1.092-1.662-6.956-2.491-2.2-.311-18.991-3.044-37.313-6.073s-34.747-5.47-36.5-5.424S117.075 3.942 108 6.11M204 17c0 .55.702 1 1.559 1s1.281-.45.941-1-1.041-1-1.559-1-.941.45-.941 1m-4.5 1c-.34.55.335 1 1.5 1s1.84-.45 1.5-1-1.015-1-1.5-1-1.16.45-1.5 1m-4 1c-.34.55.11 1 1 1s1.34-.45 1-1-.79-1-1-1-.66.45-1 1M180 63.027c-8.767 6.95-48.51 11.743-75 9.043-13.238-1.349-18.942-2.587-24.336-5.282-3.509-1.753-3.807-1.771-3.5-.208 1.045 5.314 15.98 9.089 39.836 10.066 21.983.901 46.161-2.084 57.473-7.096 5.107-2.262 6.722-3.663 7.84-6.8.77-2.158.755-2.156-2.313.277M95.952 84.25c-4.466 16.872-29.241 106.401-29.609 107-.254.412-2.009.75-3.902.75H59v29h62v-29h-11.123l.64-4.266c.352-2.347.96-5.834 1.351-7.75l.711-3.484 12.684-.28c14.323-.315 12.475-1.419 14.704 8.78 1.546 7.073 1.593 7-4.467 7H130v29h71v-28.879l-3.75-.311-3.75-.31-15.191-55c-8.356-30.25-15.218-55.338-15.25-55.75s-14.892-.75-33.02-.75H97.077zM124 121.479c0 .264-1.575 7.955-3.5 17.091s-3.5 17.245-3.5 18.021c0 1.102 1.854 1.409 8.5 1.409 4.675 0 8.5-.42 8.5-.934 0-.513-1.575-8.58-3.5-17.927s-3.5-17.25-3.5-17.566-.675-.573-1.5-.573-1.5.216-1.5.479M199 235.5c0 1.03.655 1.52 1.75 1.31 2.108-.406 1.975-2.181-.197-2.633-.906-.189-1.553.362-1.553 1.323m-39.75 2.022c-1.238.875-2.25 2.477-2.25 3.559 0 1.814.737 2.293 6.863 4.461 1.098.388 1.12.774.111 1.989-.886 1.068-2.231 1.324-4.612.877-1.995-.374-3.362-.224-3.362.369 0 1.596 6.544 2.388 9.311 1.127 2.488-1.134 4.075-4.18 2.83-5.434-.352-.356-2.143-1.275-3.979-2.044-3.96-1.658-3.711-3.926.431-3.926 4.206 0 4.553-1.947.407-2.285-2.016-.164-4.454.39-5.75 1.307m62.54 1.728c-2.096 3.276-1.196 10.486 1.412 11.314 1.11.352 2.511.08 3.149-.611.868-.942.861-1.085-.029-.585-.68.382-1.448-.19-1.817-1.353-.709-2.234.186-6.015 1.424-6.015.436 0 .579-1.125.316-2.5-.594-3.106-2.556-3.217-4.455-.25m-47.967 1.955c-1.554 1.2-2.22 3.455-1.938 6.57.288 3.192 9.115 3.795 9.115.622 0-1.13-.435-1.235-1.895-.453-2.333 1.248-4.09-.487-3.841-3.794.142-1.884.67-2.207 3.203-1.953 1.668.166 3.258-.147 3.533-.697.76-1.519-6.263-1.772-8.177-.295m12.72 3.356c-.366 2.438-.381 4.892-.035 5.452.938 1.517 2.492.163 2.492-2.171 0-1.122 1.341-3.292 2.98-4.823l2.98-2.784-3.876-.053c-3.829-.053-3.884 0-4.541 4.379m11.112-2.811c-1.602 5.838-1.701 9.25-.268 9.25 1.557 0 2.041-1.143 3.071-7.25.494-2.927.308-3.75-.845-3.75-.813 0-1.694.787-1.958 1.75m6.564 4.773c-1.543 8.132-1.531 8.477.281 8.477.905 0 1.5-.926 1.5-2.333 0-3.069.864-3.81 3.066-2.632 2.735 1.464 6.757-.482 7.553-3.654 1.052-4.192-.658-5.854-6.257-6.081l-4.925-.201zm4.177-1.732c.119 4.058 1.629 5.041 4.038 2.632 2.269-2.269 1.604-4.635-1.538-5.476-2.458-.657-2.598-.497-2.5 2.844"/></svg>