<?xml version="1.0" encoding="UTF-8"?>
<svg enable-background="new 0 0 595.28 841.89" version="1.1" viewBox="0 0 595.28 841.89" xmlns="http://www.w3.org/2000/svg">
 <linearGradient id="l" x1="444.83" x2="444.53" y1="365.28" y2="397.4" gradientUnits="userSpaceOnUse">
  <stop stop-color="#006838" offset="0"/>
  <stop stop-color="#006938" offset=".448"/>
  <stop stop-color="#106E3A" offset=".6093"/>
  <stop stop-color="#26773B" offset=".7243"/>
  <stop stop-color="#3D843D" offset=".8173"/>
  <stop stop-color="#58973F" offset=".897"/>
  <stop stop-color="#78B13F" offset=".9662"/>
  <stop stop-color="#8DC63F" offset="1"/>
 </linearGradient>
 <polygon points="448.94 358.06 445.96 395.19 440.53 392.76 442.99 360.85" fill="url(#l)"/>
 <linearGradient id="h" x1="149.09" x2="559.09" y1="422.93" y2="239.93" gradientUnits="userSpaceOnUse">
  <stop stop-color="#006838" offset=".1538"/>
  <stop stop-color="#096C39" offset=".2733"/>
  <stop stop-color="#2C7A3C" offset=".4394"/>
  <stop stop-color="#52923F" offset=".6328"/>
  <stop stop-color="#83BB3F" offset=".8455"/>
  <stop stop-color="#8DC63F" offset=".8791"/>
 </linearGradient>
 <path d="m448.94 358.06l-5.954 2.787-134.34 62.938-139.92-75.993-5.764-3.135 137.23-47.449 148.74 60.852zm-140.31 62.555l104.67-48.722c-112.62-50.652-193.56-44.976-193.56-44.976l-51.274 17.811 140.16 75.887z" fill="url(#h)"/>
 <linearGradient id="g" x1="166.22" x2="445.96" y1="421.95" y2="421.95" gradientUnits="userSpaceOnUse">
  <stop stop-color="#006838" offset=".1538"/>
  <stop stop-color="#096C39" offset=".2733"/>
  <stop stop-color="#2C7A3C" offset=".4394"/>
  <stop stop-color="#52923F" offset=".6328"/>
  <stop stop-color="#83BB3F" offset=".8455"/>
  <stop stop-color="#8DC63F" offset=".8791"/>
 </linearGradient>
 <polygon points="445.96 395.19 425.43 405.6 420.16 408.28 373.38 432.01 360.2 438.7 313.83 462.23 310.5 463.93 308.53 464.93 300.57 460.23 287.39 452.46 178.35 388.08 176.08 386.75 166.22 380.92 171.44 378.96 171.61 381.02 308.79 461.44 440.35 395.09 440.53 392.76" fill="url(#g)"/>
 <linearGradient id="f" x1="308.65" x2="442.99" y1="411.14" y2="411.14" gradientUnits="userSpaceOnUse">
  <stop stop-color="#BDBBB7" offset=".0056"/>
  <stop stop-color="#C6C3BE" offset=".1729"/>
  <stop stop-color="#DED7CF" offset=".4509"/>
  <stop stop-color="#E7DFD5" offset=".5337"/>
  <stop stop-color="#F0E7DD" offset=".7575"/>
  <stop stop-color="#F4EADF" offset="1"/>
 </linearGradient>
 <polygon points="442.99 360.85 440.53 392.76 440.35 395.09 308.79 461.44 308.65 423.78" fill="url(#f)"/>
 <linearGradient id="e" x1="423.46" x2="431.11" y1="475.5" y2="475.5" gradientUnits="userSpaceOnUse">
  <stop stop-color="#FFF200" offset="0"/>
  <stop stop-color="#925B01" offset="1"/>
 </linearGradient>
 <polygon points="431.11 458.43 428.57 492.57 423.46 487.81 425.43 460.06" fill="url(#e)"/>
 <linearGradient id="d" x1="360.74" x2="431.11" y1="458.1" y2="458.1" gradientUnits="userSpaceOnUse">
  <stop stop-color="#FFFCE1" offset="0"/>
  <stop stop-color="#FFF200" offset=".3077"/>
  <stop stop-color="#D78718" offset="1"/>
 </linearGradient>
 <polygon points="431.11 458.43 425.43 460.06 360.74 478.69 365.1 474.82 425.61 457.48 405 439.39 407.11 437.52" fill="url(#d)"/>
 <linearGradient id="c" x1="418.31" x2="348.84" y1="482.91" y2="429.01" gradientUnits="userSpaceOnUse">
  <stop stop-color="#FFFCE1" offset="0"/>
  <stop stop-color="#FFEB4C" offset=".3077"/>
  <stop stop-color="#D78718" offset="1"/>
 </linearGradient>
 <polygon points="425.61 457.48 365.1 474.82 405 439.39" fill="url(#c)"/>
 <linearGradient id="b" x1="419.36" x2="425.43" y1="413.93" y2="413.93" gradientUnits="userSpaceOnUse">
  <stop stop-color="#FBB040" offset="0"/>
  <stop stop-color="#ED1C24" offset="1"/>
 </linearGradient>
 <polygon points="425.43 405.6 424.28 422.27 419.36 420.7 420.16 408.28" fill="url(#b)"/>
 <linearGradient id="a" x1="331.08" x2="351.12" y1="484.32" y2="509.2" gradientUnits="userSpaceOnUse">
  <stop stop-color="#FBB040" offset="0"/>
  <stop stop-color="#ED1C24" offset="1"/>
 </linearGradient>
 <polygon points="424.28 422.27 407.11 437.52 405 439.39 365.1 474.82 360.74 478.69 327.03 508.62 297.58 496.88 293.63 495.3 237.52 472.94 231.03 470.36 205.01 459.99 199.32 457.72 150.84 438.41 156.08 435.18 156.35 437.87 325.81 505.04 419.22 422.76 419.36 420.7" fill="url(#a)"/>
 <linearGradient id="v" x1="342.19" x2="480.04" y1="465.8" y2="424.9" gradientUnits="userSpaceOnUse">
  <stop stop-color="#B3B1AE" offset=".0056"/>
  <stop stop-color="#BBB9B5" offset=".1438"/>
  <stop stop-color="#D3CDC6" offset=".3734"/>
  <stop stop-color="#E7DFD5" offset=".5337"/>
  <stop stop-color="#F0E7DD" offset=".7575"/>
  <stop stop-color="#F4EADF" offset="1"/>
 </linearGradient>
 <polygon points="420.16 408.28 419.36 420.7 419.22 422.76 325.81 505.04 326.06 469.72 327.35 470.19 373.38 432.01" fill="url(#v)"/>
 <linearGradient id="u" x1="222.31" x2="389.12" y1="415.45" y2="276.78" gradientUnits="userSpaceOnUse">
  <stop stop-color="#006838" offset=".1538"/>
  <stop stop-color="#096C39" offset=".2733"/>
  <stop stop-color="#2C7A3C" offset=".4394"/>
  <stop stop-color="#52923F" offset=".6328"/>
  <stop stop-color="#83BB3F" offset=".8455"/>
  <stop stop-color="#8DC63F" offset=".8791"/>
 </linearGradient>
 <path d="m414.07 371.95l-105.18 48.959-140.84-76.256 51.524-17.897c1e-3 -1e-3 81.328-5.705 194.5 45.194z" fill="url(#u)"/>
 <linearGradient id="t" x1="310.5" x2="373.38" y1="451.1" y2="451.1" gradientUnits="userSpaceOnUse">
  <stop stop-color="#FBB040" offset="0"/>
  <stop stop-color="#ED1C24" offset="1"/>
 </linearGradient>
 <polygon points="373.38 432.01 327.35 470.19 326.06 469.72 310.5 463.93 313.83 462.23 326.08 466.77 360.2 438.7" fill="url(#t)"/>
 <linearGradient id="s" x1="388.41" x2="313.52" y1="548.45" y2="495.91" gradientUnits="userSpaceOnUse">
  <stop stop-color="#FFF200" offset="0"/>
  <stop stop-color="#FFEB4C" offset=".3077"/>
  <stop stop-color="#D78718" offset="1"/>
 </linearGradient>
 <polygon points="423.46 487.81 428.57 492.57 260.59 544 199.32 457.72 205.01 459.99 262.77 540.47" fill="url(#s)"/>
 <linearGradient id="r" x1="327.86" x2="389.86" y1="458.77" y2="434.27" gradientUnits="userSpaceOnUse">
  <stop stop-color="#FBB040" offset="0"/>
  <stop stop-color="#ED1C24" offset="1"/>
 </linearGradient>
 <polygon points="360.2 438.7 326.08 466.77 313.83 462.23" fill="url(#r)"/>
 <linearGradient id="q" x1="233.81" x2="256.08" y1="469.91" y2="412" gradientUnits="userSpaceOnUse">
  <stop stop-color="#A19C7E" offset=".0056"/>
  <stop stop-color="#A8A386" offset=".0663"/>
  <stop stop-color="#BEB89E" offset=".1674"/>
  <stop stop-color="#E1D9C6" offset=".2957"/>
  <stop stop-color="#FFF5E9" offset=".3791"/>
  <stop stop-color="#F9EFE4" offset=".4169"/>
  <stop stop-color="#E7DFD5" offset=".611"/>
  <stop stop-color="#DED6CD" offset=".8056"/>
  <stop stop-color="#DAD3CA" offset="1"/>
 </linearGradient>
 <polygon points="326.06 469.72 325.81 505.04 156.35 437.87 156.08 435.18 153.12 405.38 300.57 460.23 308.53 464.93 310.5 463.93" fill="url(#q)"/>
 <linearGradient id="p" x1="232.67" x2="258.74" y1="421.93" y2="347.8" gradientUnits="userSpaceOnUse">
  <stop stop-color="#A19C7E" offset=".0056"/>
  <stop stop-color="#A8A386" offset=".0663"/>
  <stop stop-color="#BEB89E" offset=".1674"/>
  <stop stop-color="#E1D9C6" offset=".2957"/>
  <stop stop-color="#FFF5E9" offset=".3791"/>
  <stop stop-color="#F9EFE4" offset=".4169"/>
  <stop stop-color="#E7DFD5" offset=".611"/>
  <stop stop-color="#DED6CD" offset=".8056"/>
  <stop stop-color="#DAD3CA" offset="1"/>
 </linearGradient>
 <polygon points="168.73 347.79 308.65 423.78 308.79 461.44 171.61 381.02 171.44 378.96" fill="url(#p)"/>
 <linearGradient id="o" x1="147.21" x2="300.57" y1="423.49" y2="423.49" gradientUnits="userSpaceOnUse">
  <stop stop-color="#FBB040" offset="0"/>
  <stop stop-color="#ED1C24" offset="1"/>
 </linearGradient>
 <polygon points="300.57 460.23 153.12 405.38 147.21 403.19 176.08 386.75 178.35 388.08 152.85 402.69 287.39 452.46" fill="url(#o)"/>
 <linearGradient id="n" x1="231.03" x2="297.58" y1="489.14" y2="489.14" gradientUnits="userSpaceOnUse">
  <stop stop-color="#FFFCE1" offset="0"/>
  <stop stop-color="#FFEB4C" offset=".3077"/>
  <stop stop-color="#D78718" offset="1"/>
 </linearGradient>
 <polygon points="297.58 496.88 261.62 507.24 259.28 507.92 231.03 470.36 237.52 472.94 261.52 504.51 293.63 495.3" fill="url(#n)"/>
 <linearGradient id="m" x1="357.19" x2="287.72" y1="561.69" y2="507.78" gradientUnits="userSpaceOnUse">
  <stop stop-color="#FFFCE1" offset="0"/>
  <stop stop-color="#FFEB4C" offset=".3077"/>
  <stop stop-color="#D78718" offset="1"/>
 </linearGradient>
 <polygon points="293.63 495.3 261.52 504.51 237.52 472.94" fill="url(#m)"/>
 <linearGradient id="k" x1="219.43" x2="221.33" y1="443.13" y2="400.33" gradientUnits="userSpaceOnUse">
  <stop stop-color="#FBB040" offset="0"/>
  <stop stop-color="#ED1C24" offset="1"/>
 </linearGradient>
 <polygon points="287.39 452.46 152.85 402.69 178.35 388.08" fill="url(#k)"/>
 <linearGradient id="j" x1="234.34" x2="238.8" y1="492.3" y2="529.79" gradientUnits="userSpaceOnUse">
  <stop stop-color="#A19C7E" offset=".0056"/>
  <stop stop-color="#A8A388" offset=".2368"/>
  <stop stop-color="#BEB8A4" offset=".6207"/>
  <stop stop-color="#DAD3CA" offset="1"/>
 </linearGradient>
 <polygon points="261.62 507.24 262.77 540.47 205.01 459.99 231.03 470.36 259.28 507.92" fill="url(#j)"/>
 <linearGradient id="i" x1="429.01" x2="128.32" y1="477.21" y2="558.87" gradientUnits="userSpaceOnUse">
  <stop stop-color="#BDBBB7" offset=".0056"/>
  <stop stop-color="#C6C3BE" offset=".0874"/>
  <stop stop-color="#DED7CF" offset=".2233"/>
  <stop stop-color="#E7DFD5" offset=".2637"/>
  <stop stop-color="#F0E7DD" offset=".6172"/>
  <stop stop-color="#F4EADF" offset="1"/>
 </linearGradient>
 <polygon points="425.43 460.06 423.46 487.81 423.2 491.58 262.77 540.47 261.62 507.24 297.58 496.88 327.03 508.62 360.74 478.69" fill="url(#i)"/>
</svg>
