<?xml version='1.0' encoding='utf-8'?>
<svg xmlns:xlink="http://www.w3.org/1999/xlink" xmlns="http://www.w3.org/2000/svg" width="210mm" height="297mm" viewBox="0 0 210 297" version="1.1" id="svg6444"> <defs id="defs6438"> <filter style="color-interpolation-filters:sRGB" id="filter7267"> <feFlood flood-opacity="0.498039" flood-color="rgb(0,0,0)" result="flood" id="feFlood7269"/> <feComposite in="flood" in2="SourceGraphic" operator="in" result="composite1" id="feComposite7271"/> <feGaussianBlur in="composite1" stdDeviation="1" result="blur" id="feGaussianBlur7273"/> <feOffset dx="1" dy="1" result="offset" id="feOffset7275"/> <feComposite in="SourceGraphic" in2="offset" operator="over" result="composite2" id="feComposite7277"/> </filter> <linearGradient xlink:href="#linearGradient4260" id="linearGradient7309" gradientUnits="userSpaceOnUse" gradientTransform="translate(321.34608,-229.4598)" x1="487.27234" y1="304.90475" x2="482.5" y2="303.79077"/> <linearGradient id="linearGradient4260"> <stop style="stop-color:#ecb054;stop-opacity:1;" offset="0" id="stop4262"/> </linearGradient> </defs> <metadata id="metadata6441"> </metadata> <g id="layer1"> <g id="g7055"> <path transform="matrix(0.20791822,0.19083866,-0.19083866,0.20791822,-13.299986,-83.601875)" id="path7289" d="M 475.00001,349.14792 449.28572,282.71934 V 85.576485 l 0.17857,-13.571429 c 16.67821,-12.23406 33.56012,-12.932235 50.71429,0.535714 l -0.17857,210.17857 z" style="fill:#f3cc90;fill-opacity:1;fill-rule:evenodd;stroke:none;stroke-width:1px;stroke-linecap:butt;stroke-linejoin:miter;stroke-opacity:1;filter:url(#filter7267)"/> <path transform="matrix(0.20791822,0.19083866,-0.19083866,0.20791822,-13.299986,-83.601875)" id="path7291" d="m 485.132,280.01229 c -4.08164,-4.40845 -8.3388,-6.3653 -12.43751,-5.71702 -3.01328,0.47661 -5.92447,2.20405 -9.4688,5.61859 l -1.82953,1.76254 -1.57974,-1.51498 c -4.3092,-4.13256 -7.46741,-4.33158 -9.8219,-0.61893 l -0.72371,1.14117 0.0635,-81.66562 0.0635,-81.66562 5.80838,-1.08559 5.80838,-1.08558 13.13198,-0.0158 13.13198,-0.0158 6.37659,0.82782 6.37659,0.82782 v 82.04395 82.04394 l -0.82075,-1.2099 c -0.45141,-0.66545 -1.25746,-1.55902 -1.79121,-1.98571 -0.86459,-0.69117 -1.15386,-0.77581 -2.65165,-0.77581 -2.2405,0 -3.67274,0.7324 -6.04969,3.09359 -1.01372,1.007 -1.86604,1.81718 -1.89404,1.80039 -0.028,-0.0168 -0.78959,-0.82833 -1.69241,-1.80344 z" style="opacity:1;fill:#ff0808;fill-opacity:1;fill-rule:nonzero;stroke:none;stroke-width:1;stroke-linecap:round;stroke-linejoin:miter;stroke-miterlimit:4;stroke-dasharray:none;stroke-opacity:1;filter:url(#filter7267)"/> <path transform="matrix(0.20791822,0.19083866,-0.19083866,0.20791822,-13.299986,-83.601875)" id="path7293" d="m 487.90992,198.02892 c 0,-78.50336 0.0219,-82.60531 0.44194,-82.6053 0.48478,1e-5 9.54099,1.16257 10.85914,1.394 l 0.82075,0.14411 v 81.8488 81.84881 l -0.71428,-0.98491 c -0.94892,-1.30846 -2.42462,-2.58062 -3.22715,-2.78204 -1.02026,-0.25607 -3.22054,0.0629 -4.32675,0.62725 -0.55497,0.28312 -1.64907,1.09973 -2.43134,1.81468 l -1.42231,1.29992 z" style="opacity:1;fill:#fd5252;fill-opacity:1;fill-rule:nonzero;stroke:none;stroke-width:1;stroke-linecap:round;stroke-linejoin:miter;stroke-miterlimit:4;stroke-dasharray:none;stroke-opacity:1;filter:url(#filter7267)"/> <path transform="matrix(0.20791822,0.19083866,-0.19083866,0.20791822,-13.299986,-83.601875)" id="path7295" d="m 459.16996,279.46932 c -2.7453,-2.49488 -5.43677,-3.25639 -7.23242,-2.0463 -0.4661,0.31411 -1.22158,1.06162 -1.67885,1.66113 l -0.8314,1.09004 V 198.8643 c 0,-64.81662 0.064,-81.33383 0.31568,-81.42791 0.71774,-0.26833 10.79691,-2.0396 10.91785,-1.91865 0.0723,0.0723 0.10287,37.29672 0.0679,82.72095 l -0.0635,82.58951 -1.49528,-1.35888 z" style="opacity:1;fill:#d20000;fill-opacity:1;fill-rule:nonzero;stroke:none;stroke-width:1;stroke-linecap:round;stroke-linejoin:miter;stroke-miterlimit:4;stroke-dasharray:none;stroke-opacity:1;filter:url(#filter7267)"/> <path transform="matrix(0.20791822,0.19083866,-0.19083866,0.20791822,-13.299986,-83.601875)" id="path7297" d="m 470.39872,337.1313 c -2.48733,-6.43786 -4.45575,-11.77185 -4.37429,-11.85332 0.0815,-0.0815 1.11209,-0.40268 2.29027,-0.71382 1.86833,-0.49338 2.52241,-0.57719 5.11702,-0.65563 2.29978,-0.0695 3.3848,-0.0214 4.78123,0.2121 2.37445,0.39704 5.46564,1.37396 5.4362,1.71802 -0.0284,0.33153 -8.45343,22.7179 -8.60986,22.87738 -0.065,0.0663 -2.15324,-5.14687 -4.64057,-11.58473 z" style="opacity:1;fill:#1a1a1a;fill-opacity:1;fill-rule:nonzero;stroke:none;stroke-width:1;stroke-linecap:round;stroke-linejoin:miter;stroke-miterlimit:4;stroke-dasharray:none;stroke-opacity:1;filter:url(#filter7267)"/> <path transform="matrix(0.20791822,0.19083866,-0.19083866,0.20791822,-13.299986,-83.601875)" id="path7299" d="m 482.76379,325.28248 c -0.40082,-0.18416 -1.51482,-0.5343 -2.47555,-0.77809 -0.96073,-0.24379 -1.76463,-0.46765 -1.78645,-0.49747 -0.0218,-0.0298 2.07452,-9.73724 4.65851,-21.57206 l 4.69817,-21.51786 1.37825,-1.28811 c 0.75804,-0.70846 1.86499,-1.54809 2.4599,-1.86584 0.92353,-0.49327 1.30885,-0.58872 2.63584,-0.65298 0.8548,-0.0414 1.74543,-0.0272 1.97917,0.0314 0.62771,0.15754 1.99079,1.42732 2.90007,2.70157 0.65603,0.91933 0.79872,1.26001 0.79872,1.90699 0,0.60336 -1.89394,5.81912 -8.09322,22.28815 -4.45127,11.82526 -8.16779,21.51816 -8.25893,21.53979 -0.0911,0.0216 -0.49365,-0.11135 -0.89448,-0.29551 z" style="opacity:1;fill:url(#linearGradient7309);fill-opacity:1;fill-rule:nonzero;stroke:none;stroke-width:1;stroke-linecap:round;stroke-linejoin:miter;stroke-miterlimit:4;stroke-dasharray:none;stroke-opacity:1;filter:url(#filter7267)"/> <path transform="matrix(0.20791822,0.19083866,-0.19083866,0.20791822,-13.299986,-83.601875)" id="path7301" d="m 449.26201,102.14204 c 0,-8.264313 0.0852,-15.026614 0.18941,-15.027337 0.10417,-7.22e-4 2.90432,-0.512112 6.22254,-1.136421 l 6.03315,-1.135107 h 12.42784 12.42785 l 6.54029,0.881988 c 3.59715,0.485093 6.62551,0.882841 6.72969,0.883883 0.10417,10e-4 0.1894,6.763604 0.1894,15.027914 0,8.26431 -0.089,15.02602 -0.19778,15.02602 -0.10878,0 -2.75096,-0.33992 -5.87151,-0.75538 l -5.67373,-0.75539 -13.8896,0.001 -13.8896,0.001 -5.3033,1.00683 c -2.91682,0.55355 -5.44535,1.00671 -5.61897,1.00681 -0.24901,1.5e-4 -0.31568,-3.17328 -0.31568,-15.02583 z" style="opacity:1;fill:#ffe380;fill-opacity:1;fill-rule:nonzero;stroke:none;stroke-width:1;stroke-linecap:round;stroke-linejoin:miter;stroke-miterlimit:4;stroke-dasharray:none;stroke-opacity:1;filter:url(#filter7267)"/> <path transform="matrix(0.20791822,0.19083866,-0.19083866,0.20791822,-13.299986,-83.601875)" id="path7303" d="m 449.39266,115.84223 c -0.20041,-1.67907 -0.0585,-28.377761 0.1519,-28.588006 0.13453,-0.134408 10.57281,-2.158511 11.13142,-2.158511 0.11154,0 0.20279,6.761708 0.20279,15.026017 0,8.26431 -0.0596,15.02602 -0.13237,15.02602 -0.0728,0 -2.54144,0.45457 -5.48586,1.01015 -2.94442,0.55559 -5.43362,1.01016 -5.53156,1.01016 -0.0979,0 -0.24929,-0.59663 -0.33632,-1.32583 z" style="opacity:1;fill:#eaba00;fill-opacity:1;fill-rule:nonzero;stroke:none;stroke-width:1;stroke-linecap:round;stroke-linejoin:miter;stroke-miterlimit:4;stroke-dasharray:none;stroke-opacity:1;filter:url(#filter7267)"/> <path transform="matrix(0.20791822,0.19083866,-0.19083866,0.20791822,-13.299986,-83.601875)" id="path7305" d="m 495.47649,116.13904 c -1.87509,-0.2577 -4.34681,-0.5979 -5.4927,-0.756 l -2.08344,-0.28746 v -14.99993 c 0,-11.832004 0.0667,-14.999774 0.31567,-14.999164 0.81265,0.002 11.39327,1.522443 11.52746,1.656517 0.20455,0.204354 0.34608,27.472087 0.14969,28.836687 -0.11441,0.79489 -0.2651,1.06611 -0.58094,1.04559 -0.23456,-0.0152 -1.96064,-0.23854 -3.83574,-0.49624 z" style="opacity:1;fill:#ffd747;fill-opacity:1;fill-rule:nonzero;stroke:none;stroke-width:1;stroke-linecap:round;stroke-linejoin:miter;stroke-miterlimit:4;stroke-dasharray:none;stroke-opacity:1;filter:url(#filter7267)"/> <path transform="matrix(0.20791822,0.19083866,-0.19083866,0.20791822,-13.299986,-83.601875)" id="path7307" d="m 499.87479,88.132791 -0.0328,-1.525111 -4.77679,-0.661348 c -7.7528,-1.073382 -7.15222,-1.045973 -21.5625,-0.984023 l -13.39286,0.05757 -5.17857,1.024141 c -2.84821,0.563278 -5.2335,1.024242 -5.30064,1.024366 -0.0671,1.23e-4 -0.15805,0.221207 -0.20204,0.491296 -0.044,0.270089 -0.0429,-3.044643 0.002,-7.366071 0.0453,-4.321429 0.11194,-7.95318 0.14804,-8.070557 0.0926,-0.301228 3.90641,-2.823001 6.24941,-4.132284 3.85876,-2.156302 8.00443,-3.731644 12.09696,-4.596817 2.72951,-0.577025 7.8449,-0.7837 10.81849,-0.437094 2.33113,0.27172 5.94204,1.163086 8.33021,2.056345 3.56445,1.333225 8.803,4.28629 12.08888,6.814716 l 1.03612,0.797279 -0.0242,4.94492 c -0.026,5.325417 -0.2461,13.070524 -0.30011,10.562667 z" style="opacity:1;fill:#000000;fill-opacity:1;fill-rule:nonzero;stroke:none;stroke-width:1;stroke-linecap:round;stroke-linejoin:miter;stroke-miterlimit:4;stroke-dasharray:none;stroke-opacity:1;filter:url(#filter7267)"/> </g> </g> </svg>