<?xml version="1.0" encoding="UTF-8"?>
<svg viewBox="0 0 258.47458 253.94205" xmlns="http://www.w3.org/2000/svg" xmlns:xlink="http://www.w3.org/1999/xlink">
 <defs>
  <clipPath id="n">
   <path d="m510.25986,265.24539h257.85806a.30826,.32349 0 0,1 .30826.32349v253.59032a.30826,.32349 0 0,1 -.30826.32349h-257.85806a.30826,.32349 0 0,1 -.30826-.32349v-253.59032a.30826,.32349 0 0,1 .30826-.32349"/>
  </clipPath>
  <filter id="f">
   <feGaussianBlur stdDeviation=".61378"/>
  </filter>
  <filter id="m">
   <feGaussianBlur stdDeviation=".30313"/>
  </filter>
  <filter id="d" x="-.03699" y="-.18241" width="1.074" height="1.3648">
   <feGaussianBlur stdDeviation=".7488"/>
  </filter>
  <filter id="e" x="-.42079" y="-.24656" width="1.8416" height="1.4931">
   <feGaussianBlur stdDeviation=".56225"/>
  </filter>
  <linearGradient id="c" x1="4.1291" x2="52.712" gradientUnits="userSpaceOnUse">
   <stop stop-opacity=".18824" offset="0"/>
   <stop stop-opacity=".76078" offset="1"/>
  </linearGradient>
  <linearGradient id="b" x1="14.069" x2="14.143" y1="14.623" y2="8.8007" gradientUnits="userSpaceOnUse">
   <stop stop-opacity=".52344" offset="0"/>
   <stop stop-color="#fff" stop-opacity=".78039" offset="1"/>
  </linearGradient>
  <linearGradient id="k">
   <stop stop-color="#fffffd" stop-opacity="0" offset="0"/>
   <stop stop-color="#fffab3" stop-opacity=".84375" offset=".31646"/>
   <stop stop-color="#fffbfb" stop-opacity="0" offset="1"/>
  </linearGradient>
  <linearGradient id="l">
   <stop stop-color="#2b2b2b" stop-opacity=".67188" offset="0"/>
   <stop stop-opacity=".58594" offset=".28481"/>
   <stop stop-color="#333" stop-opacity="0" offset="1"/>
  </linearGradient>
  <linearGradient id="a" x1="35.687" x2="32.888" y1="22.38" y2="29.408" gradientUnits="userSpaceOnUse" xlink:href="#k"/>
  <linearGradient id="g" x1="42.799" x2="47.702" y1="58.655" y2="49.845" gradientUnits="userSpaceOnUse" xlink:href="#l"/>
  <linearGradient id="h" x1="52.414" x2="46.236" y1="46.033" y2="50.22" gradientUnits="userSpaceOnUse" xlink:href="#k"/>
  <linearGradient id="i" x1="239.55" x2="212.66" y1="164.47" y2="182.7" gradientUnits="userSpaceOnUse" xlink:href="#k"/>
  <linearGradient id="j" x1="197.69" x2="219.04" y1="219.42" y2="181.07" gradientUnits="userSpaceOnUse" xlink:href="#l"/>
 </defs>
 <g transform="translate(-509.95 -265.25)" clip-path="url(#n)">
  <g transform="matrix(4.3531 0 0 4.3531 -8.7862 -3.8909)">
   <path transform="matrix(1.1182 0 0 1 -.36696 .46875)" d="m10.033 47.875c-1.909 0-4.3495 2.1937-5.449 4.8887s-0.13987 4.8923 2.1509 4.8966l31.448 0.0598 3.4879 0.0066 0.02859 5.4e-5 0.07746-0.03203 7.6578-3.1276c-0.0081-0.0051-0.02555-0.01081-0.03364-0.01616l3.1826-1.4311c0.27376-0.14143 0.08252-0.49345-0.3263-0.62943l-4.2534-1.4227-0.67321-0.22614-1.4246-0.5005-6.7361-2.4663h-29.137" fill="url(#c)" fill-rule="evenodd" filter="url(#d)"/>
   <g transform="translate(7.3614 -7.7812)">
    <path d="m11.077 24.893-3.3765 3.3765 24.851 24.851 2.1609 2.1609 0.10129 0.03376 2.1947 0.50647 2.4986-2.4986-28.43-28.43z" fill="#ff3434" fill-opacity=".80328" fill-rule="evenodd"/>
    <path transform="translate(-7.3614 7.7812)" d="m20.03125,16.5625-.03125.03125h-.03125l-.03125.03125-3.875,3.875 26.375,26.375 3.875-3.875 .03125-.03125c.00091-.0104.00091-.02085 0-.03125 .01442-.01858.02504-.03982.03125-.0625 .00091-.0104.00091-.02085 0-.03125l-.03125-.03125c.00091-.0104.00091-.02085 0-.03125l-.03125-.03125-26.125-26.125-.03125-.03125h-.03125c-.01858-.01442-.03982-.02504-.0625-.03125h-.03125zm-3.25,4.28125c.31548-.06492 1.02319.13566 1.9375.625s2.04187,1.23942 3.34375,2.21875c2.60376,1.95867 5.85308,4.79058 9.1875,8.125 3.55672,3.55672 6.56588,7 8.53125,9.6875 .98268,1.34375 1.68824,2.50161 2.09375,3.375 .20275.4367.33688.82084.375,1.09375 .02796.20013.0119.31447-.03125.40625l-25.5-25.5c.02612-.0088.02808-.02417.0625-.03125z" fill="#ed0000" fill-rule="evenodd" filter="url(#f)" opacity=".98"/>
    <path transform="translate(-7.3614 7.7812)" d="m26.78125,6.25c-2.17674-.12554-5.39179,1.48554-8.1875,4.28125-3.72761,3.72761-5.30186,8.19814-3.53125,9.96875 .41629.41629.98692.6267 1.65625.6875l-.34375-.34375c.01319-.01781.01566-.04691.03125-.0625 .06872-.06872.17023-.10215.28125-.125 .3463-.07127.91745.06928 1.625.40625 2.01673-.44579 4.50013-1.90638 6.71875-4.125 3.72761-3.72761 5.30186-8.19814 3.53125-9.96875-.44265-.44265-1.05567-.6769-1.78125-.71875z" fill="#860000" fill-rule="evenodd"/>
    <g fill="#ed0000" fill-rule="evenodd">
     <path transform="translate(-7.3616 7.7812)" d="m28.562 6.9688-13.5 13.531 27 27 13.531-13.5-27.031-27.031zm-11.875 13.688c1.6653-0.3427 7.9461 4.3524 14.625 11.031 7.1241 7.1241 12.006 13.807 10.906 14.906-0.01559 0.01559-0.04469 0.01806-0.0625 0.03125l-25.781-25.781c0.01319-0.01781 0.01566-0.04691 0.03125-0.0625 0.06872-0.06872 0.17023-0.10215 0.28125-0.125z"/>
     <path transform="translate(-7.3616 7.7812)" d="m52.875 31.312-11.844 11.844c1.1274 1.7746 1.6093 3.0157 1.1875 3.4375-0.01559 0.01559-0.04469 0.01806-0.0625 0.03125l-2.2812-2.3125-0.5 0.5 2.7188 2.6875 8.75 2.0312 6.7812-6.75-2.0312-8.7812-2.7188-2.6875z"/>
    </g>
    <g fill="#860000">
     <path transform="matrix(.66878 .66878 -.72397 .72397 44.03 40.587)" d="m13.72796,10.9783v-7.44517l5.3994,3.11734c.43545.25651.47055.91841.04141,1.18658l-5.44081,3.14125z" fill="#860000" fill-rule="evenodd"/>
    </g>
    <path d="m21.206 14.764-3.3765 3.3765 28.16 28.16 2.6674-2.6674-0.43894-1.857-2.2622-2.2622-24.749-24.749z" fill="#fff" fill-opacity=".52459" fill-rule="evenodd"/>
    <path d="m11.062 24.906-3.375 3.375 24.875 24.844 2.1562 2.1562 0.09375 0.03125 2.1875 0.5 2.5-2.5-28.438-28.406z" fill-opacity=".41569" fill-rule="evenodd"/>
    <path d="m48.218 41.776c0.1303 1.3034-0.95477 2.8686-3.4778 3.2752-1.0677 4.2832-3.2545 6.2819-6.7192 6.7867-0.67928 2.9521-1.4937 3.5518-3.2752 3.4778l11.311 2.5999c0.12149-0.72099 1.1594-1.8865 2.0218-2.7489s2.1354-1.9122 2.7728-2.0456l-2.6336-11.345z" fill="#fd5" fill-rule="evenodd"/>
   </g>
   <g transform="translate(7.3614 -7.7812)">
    <g transform="matrix(1.0805 1.0805 -1.0389 1.0389 35.543 -10.378)" fill="url(#a)">
     <path transform="matrix(.61897 0 0 .69686 27.512 20.444)" d="m13.72796,10.9783v-7.44517l5.3994,3.11734c.43545.25651.47055.91841.04141,1.18658l-5.44081,3.14125z" fill="url(#a)" fill-rule="evenodd"/>
    </g>
    <path d="m48.218 41.776c0.1303 1.3034-0.95477 2.8686-3.4778 3.2752-1.0677 4.2832-3.2545 6.2819-6.7192 6.7867-0.67928 2.9521-1.4937 3.5518-3.2752 3.4778l11.311 2.5999c0.12149-0.72099 1.1594-1.8865 2.0218-2.7489s2.1354-1.9122 2.7728-2.0456l-2.6336-11.345z" fill="url(#g)" fill-rule="evenodd"/>
    <path d="m48.218 41.776c0.1303 1.3034-0.95477 2.8686-3.4778 3.2752-1.0677 4.2832-3.2545 6.2819-6.7192 6.7867-0.67928 2.9521-1.4937 3.5518-3.2752 3.4778l11.311 2.5999c0.12149-0.72099 1.1594-1.8865 2.0218-2.7489s2.1354-1.9122 2.7728-2.0456l-2.6336-11.345z" fill="url(#h)" fill-rule="evenodd" opacity=".75709"/>
    <path transform="matrix(.95861 .95861 -2.2758 2.2758 26.768 -19)" d="m14.71 14.575c-1.848 0-3.3461-1.3285-3.3461-2.9673s1.4981-2.9673 3.3461-2.9673v5.9346z" fill="url(#b)" fill-rule="evenodd"/>
    <path d="m50.57305,53.21002c.08255.0163.65806,2.64414.65806,2.64414 .76266,2.88653.91389,2.96624.17278,2.7427-.723-.35663-1.71004-1.51917-2.17111-2.1768-.44044-.67086-1.01934-1.73893.08043-2.57226 .38412-.35825.92033-.70483 1.25984-.63777z" fill="#fff" fill-opacity=".29918" fill-rule="evenodd" filter="url(#e)"/>
    <path d="m19.438 14.031c-2.8856 6e-3 -5.4077 1.8076-7.5 3.625 1.3408-0.52693 2.6436-1.1998 4.1174-0.92456 1.4089 0.26309 1.033 0.97828 1.7811 1.3779 0.81034-0.81034 2.5724-2.5492 3.3828-3.3596-0.46552-0.47157-1.132-0.6851-1.7812-0.71875z" fill="#fff" fill-opacity=".18443" fill-rule="evenodd"/>
   </g>
   <path d="m25.206 10.353 26.908 26.908" fill="#b9b9b9" fill-rule="evenodd" stroke="#f24e4e" stroke-width=".30037"/>
   <path d="m18.442 17.107 26.941 26.941" fill="#fff" fill-rule="evenodd" stroke="#b80000" stroke-width=".30073"/>
  </g>
  <g transform="translate(252.99 270.29)">
   <g transform="matrix(4.3531 0 0 4.3531 -10.5 -12.253)">
    <path transform="matrix(1.1182 0 0 1 -.36696 .46875)" d="m10.033 47.875c-1.909 0-4.3495 2.1937-5.449 4.8887s-0.13987 4.8923 2.1509 4.8966l31.448 0.0598 3.4879 0.0066 0.02859 5.4e-5 0.07746-0.03203 7.6578-3.1276c-0.0081-0.0051-0.02555-0.01081-0.03364-0.01616l3.1826-1.4311c0.27376-0.14143 0.08252-0.49345-0.3263-0.62943l-4.2534-1.4227-0.67321-0.22614-1.4246-0.5005-6.7361-2.4663h-29.137" fill="url(#c)" fill-rule="evenodd" filter="url(#d)"/>
    <path d="m26.78125,6.25c-2.17674-.12554-5.39179,1.48554-8.1875,4.28125-3.72761,3.72761-5.30186,8.19814-3.53125,9.96875 .41629.41629.98692.6267 1.65625.6875l-.34375-.34375c.01319-.01781.01566-.04691.03125-.0625 .06872-.06872.17023-.10215.28125-.125 .3463-.07127.91745.06928 1.625.40625 2.01673-.44579 4.50013-1.90638 6.71875-4.125 3.72761-3.72761 5.30186-8.19814 3.53125-9.96875-.44265-.44265-1.05567-.6769-1.78125-.71875z" fill="#3e003e" fill-rule="evenodd"/>
    <g fill="#800080" fill-rule="evenodd">
     <path transform="translate(-.00016 5.3484e-5)" d="m28.562 6.9688-13.5 13.531 27 27 13.531-13.5-27.031-27.031zm-11.875 13.688c1.6653-0.3427 7.9461 4.3524 14.625 11.031 7.1241 7.1241 12.006 13.807 10.906 14.906-0.01559 0.01559-0.04469 0.01806-0.0625 0.03125l-25.781-25.781c0.01319-0.01781 0.01566-0.04691 0.03125-0.0625 0.06872-0.06872 0.17023-0.10215 0.28125-0.125z"/>
     <path transform="translate(-.00016 5.3484e-5)" d="m52.875 31.312-11.844 11.844c1.1274 1.7746 1.6093 3.0157 1.1875 3.4375-0.01559 0.01559-0.04469 0.01806-0.0625 0.03125l-2.2812-2.3125-0.5 0.5 2.7188 2.6875 8.75 2.0312 6.7812-6.75-2.0312-8.7812-2.7188-2.6875z"/>
    </g>
    <g fill="#410041">
     <path transform="matrix(.66878 .66878 -.72397 .72397 51.391 32.806)" d="m13.72796,10.9783v-7.44517l5.3994,3.11734c.43545.25651.47055.91841.04141,1.18658l-5.44081,3.14125z" fill="#410041" fill-rule="evenodd"/>
    </g>
    <path transform="translate(7.3614 -7.7812)" d="m21.206 14.764-3.3765 3.3765 28.16 28.16 2.6674-2.6674-0.43894-1.857-2.2622-2.2622-24.749-24.749z" fill="#fff" fill-opacity=".52459" fill-rule="evenodd"/>
    <path transform="translate(7.3614 -7.7812)" d="m11.077 24.893-3.3765 3.3765 24.851 24.851 2.1609 2.1609 0.10129 0.03376 2.1947 0.50647 2.4986-2.4986-28.43-28.43z" fill="#800080" fill-opacity=".78689" fill-rule="evenodd"/>
    <path d="m20.03125,16.5625-.03125.03125h-.03125l-.03125.03125-3.875,3.875 26.375,26.375 3.875-3.875 .03125-.03125c.00091-.0104.00091-.02085 0-.03125 .01442-.01858.02504-.03982.03125-.0625 .00091-.0104.00091-.02085 0-.03125l-.03125-.03125c.00091-.0104.00091-.02085 0-.03125l-.03125-.03125-26.125-26.125-.03125-.03125h-.03125c-.01858-.01442-.03982-.02504-.0625-.03125h-.03125zm-3.25,4.28125c.31548-.06492 1.02319.13566 1.9375.625s2.04187,1.23942 3.34375,2.21875c2.60376,1.95867 5.85308,4.79058 9.1875,8.125 3.55672,3.55672 6.56588,7 8.53125,9.6875 .98268,1.34375 1.68824,2.50161 2.09375,3.375 .20275.4367.33688.82084.375,1.09375 .02796.20013.0119.31447-.03125.40625l-25.5-25.5c.02612-.0088.02808-.02417.0625-.03125z" fill="#800080" fill-rule="evenodd" filter="url(#f)" opacity=".98"/>
    <path transform="translate(7.3614 -7.7812)" d="m11.062 24.906-3.375 3.375 24.875 24.844 2.1562 2.1562 0.09375 0.03125 2.1875 0.5 2.5-2.5-28.438-28.406z" fill-opacity=".41569" fill-rule="evenodd"/>
    <path transform="translate(7.3614 -7.7812)" d="m48.218 41.776c0.1303 1.3034-0.95477 2.8686-3.4778 3.2752-1.0677 4.2832-3.2545 6.2819-6.7192 6.7867-0.67928 2.9521-1.4937 3.5518-3.2752 3.4778l11.311 2.5999c0.12149-0.72099 1.1594-1.8865 2.0218-2.7489s2.1354-1.9122 2.7728-2.0456l-2.6336-11.345z" fill="#fd5" fill-rule="evenodd"/>
    <g transform="matrix(1.0805 1.0805 -1.0389 1.0389 42.905 -18.159)" fill="url(#a)">
     <path transform="matrix(.61897 0 0 .69686 27.512 20.444)" d="m13.72796,10.9783v-7.44517l5.3994,3.11734c.43545.25651.47055.91841.04141,1.18658l-5.44081,3.14125z" fill="url(#a)" fill-rule="evenodd"/>
    </g>
    <path transform="translate(7.3614 -7.7812)" d="m48.218 41.776c0.1303 1.3034-0.95477 2.8686-3.4778 3.2752-1.0677 4.2832-3.2545 6.2819-6.7192 6.7867-0.67928 2.9521-1.4937 3.5518-3.2752 3.4778l11.311 2.5999c0.12149-0.72099 1.1594-1.8865 2.0218-2.7489s2.1354-1.9122 2.7728-2.0456l-2.6336-11.345z" fill="url(#g)" fill-rule="evenodd"/>
    <path transform="translate(7.3614 -7.7812)" d="m48.218 41.776c0.1303 1.3034-0.95477 2.8686-3.4778 3.2752-1.0677 4.2832-3.2545 6.2819-6.7192 6.7867-0.67928 2.9521-1.4937 3.5518-3.2752 3.4778l11.311 2.5999c0.12149-0.72099 1.1594-1.8865 2.0218-2.7489s2.1354-1.9122 2.7728-2.0456l-2.6336-11.345z" fill="url(#h)" fill-rule="evenodd" opacity=".75709"/>
    <path transform="matrix(.95861 .95861 -2.2758 2.2758 34.129 -26.782)" d="m14.71 14.575c-1.848 0-3.3461-1.3285-3.3461-2.9673s1.4981-2.9673 3.3461-2.9673v5.9346z" fill="url(#b)" fill-rule="evenodd"/>
    <path transform="translate(7.3614 -7.7812)" d="m50.57305,53.21002c.08255.0163.65806,2.64414.65806,2.64414 .76266,2.88653.91389,2.96624.17278,2.7427-.723-.35663-1.71004-1.51917-2.17111-2.1768-.44044-.67086-1.01934-1.73893.08043-2.57226 .38412-.35825.92033-.70483 1.25984-.63777z" fill="#fff" fill-opacity=".29918" fill-rule="evenodd" filter="url(#e)"/>
    <path transform="translate(7.3614 -7.7812)" d="m19.438 14.031c-2.8856 6e-3 -5.4077 1.8076-7.5 3.625 1.3408-0.52693 2.6436-1.1998 4.1174-0.92456 1.4089 0.26309 1.033 0.97828 1.7811 1.3779 0.81034-0.81034 2.5724-2.5492 3.3828-3.3596-0.46552-0.47157-1.132-0.6851-1.7812-0.71875z" fill="#fff" fill-opacity=".18443" fill-rule="evenodd"/>
    <path d="m25.206 10.353 26.908 26.908" fill="#b264b2" fill-rule="evenodd" stroke="#a24ea2" stroke-width=".30037"/>
    <path d="m18.442 17.107 26.941 26.941" fill="#800080" fill-rule="evenodd" stroke="#640064" stroke-width=".30073"/>
   </g>
  </g>
  <g transform="translate(252.99 8.3622)">
   <g transform="translate(2.7948 -2.4328)">
    <path transform="matrix(4.8674 0 0 4.3531 -14.893 -7.7798)" d="m10.033 47.875c-1.909 0-4.3495 2.1937-5.449 4.8887s-0.13987 4.8923 2.1509 4.8966l31.448 0.0598 3.4879 0.0066 0.02859 5.4e-5 0.07746-0.03203 7.6578-3.1276c-0.0081-0.0051-0.02555-0.01081-0.03364-0.01616l3.1826-1.4311c0.27376-0.14143 0.08252-0.49345-0.3263-0.62943l-4.2534-1.4227-0.67321-0.22614-1.4246-0.5005-6.7361-2.4663h-29.137" fill="url(#c)" fill-rule="evenodd" filter="url(#d)"/>
    <path transform="translate(7.3614 -7.7812)" d="m95.924 25.168c-9.4755-0.54649-23.471 6.4667-35.641 18.637-16.227 16.227-23.079 35.687-15.372 43.395 1.8121 1.8121 4.2961 2.7281 7.2098 2.9927l-1.4964-1.4964c0.05742-0.07754 0.06819-0.20422 0.13603-0.27207 0.29914-0.29914 0.74102-0.44468 1.2243-0.54413 1.5075-0.31022 3.9937 0.30159 7.0737 1.7684 8.7789-1.9405 19.589-8.2986 29.247-17.956 16.227-16.227 23.079-35.687 15.372-43.395-1.9269-1.9269-4.5954-2.9466-7.7539-3.1288z" fill="#b04600" fill-rule="evenodd"/>
    <g fill="#f60" fill-rule="evenodd">
     <path transform="matrix(4.3531 0 0 4.3531 -13.296 -9.8204)" d="m28.562 6.9688-13.5 13.531 27 27 13.531-13.5-27.031-27.031zm-11.875 13.688c1.6653-0.3427 7.9461 4.3524 14.625 11.031 7.1241 7.1241 12.006 13.807 10.906 14.906-0.01559 0.01559-0.04469 0.01806-0.0625 0.03125l-25.781-25.781c0.01319-0.01781 0.01566-0.04691 0.03125-0.0625 0.06872-0.06872 0.17023-0.10215 0.28125-0.125z"/>
     <path transform="matrix(4.3531 0 0 4.3531 -13.296 -9.8204)" d="m52.875 31.312-11.844 11.844c1.1274 1.7746 1.6093 3.0157 1.1875 3.4375-0.01559 0.01559-0.04469 0.01806-0.0625 0.03125l-2.2812-2.3125-0.5 0.5 2.7188 2.6875 8.75 2.0312 6.7812-6.75-2.0312-8.7812-2.7188-2.6875z"/>
    </g>
    <g fill="#9d3e00">
     <path transform="matrix(2.9112 2.9112 -3.1515 3.1515 210.41 132.99)" d="m13.72796,10.9783v-7.44517l5.3994,3.11734c.43545.25651.47055.91841.04141,1.18658l-5.44081,3.14125z" fill="#9d3e00" fill-rule="evenodd"/>
    </g>
    <path transform="translate(7.3614 -7.7812)" d="m103.7 28.358-14.698 14.698 122.58 122.58 11.611-11.611-1.9107-8.0839-9.8476-9.8476-107.74-107.74z" fill="#fff" fill-opacity=".52459" fill-rule="evenodd"/>
    <path transform="translate(7.3614 -7.7812)" d="m59.607 72.451-14.698 14.698 108.18 108.18 9.4067 9.4067 0.44093 0.14698 9.5537 2.2047 10.876-10.876-123.76-123.76z" fill="#f60" fill-opacity=".76735" fill-rule="evenodd"/>
    <path transform="matrix(4.3531 0 0 4.3531 18.749 -43.693)" d="m12.66984,24.34375-.03125.03125h-.03125l-.03125.03125-3.875,3.875 26.375,26.375 3.875-3.875 .03125-.03125c.00091-.0104.00091-.02085 0-.03125 .01442-.01858.02504-.03982.03125-.0625 .00091-.0104.00091-.02085 0-.03125l-.03125-.03125c.00091-.0104.00091-.02085 0-.03125l-.03125-.03125-26.125-26.125-.03125-.03125h-.03125c-.01858-.01442-.03982-.02504-.0625-.03125h-.03125zm-3.25,4.28125c.31548-.06492 1.02319.13566 1.9375.625s2.04187,1.23942 3.34375,2.21875c2.60376,1.95867 5.85308,4.79058 9.1875,8.125 3.55672,3.55672 6.56588,7 8.53125,9.6875 .98268,1.34375 1.68824,2.50161 2.09375,3.375 .20275.4367.33688.82084.375,1.09375 .02796.20013.0119.31447-.03125.40625l-25.5-25.5c.02612-.0088.02808-.02417.0625-.03125z" fill="#f60" fill-rule="evenodd" filter="url(#f)" opacity=".98"/>
    <path transform="matrix(4.3531 0 0 4.3531 18.749 -43.693)" d="m11.062 24.906-3.375 3.375 24.875 24.844 2.1562 2.1562 0.09375 0.03125 2.1875 0.5 2.5-2.5-28.438-28.406z" fill-opacity=".41569" fill-rule="evenodd"/>
    <path transform="translate(7.3614 -7.7812)" d="m221.28 145.94c0.56722 5.6736-4.1562 12.487-15.139 14.257-4.6476 18.645-14.167 27.345-29.249 29.543-2.9569 12.851-6.502 15.461-14.257 15.139l49.238 11.317c0.52883-3.1385 5.0469-8.2121 8.8009-11.966s9.2954-8.3241 12.07-8.9049l-11.464-49.385z" fill="#fd5" fill-rule="evenodd"/>
    <g transform="matrix(4.7033 4.7033 -4.5224 4.5224 173.47 -88.867)" fill="url(#a)">
     <path transform="matrix(.61897 0 0 .69686 27.512 20.444)" d="m13.72796,10.9783v-7.44517l5.3994,3.11734c.43545.25651.47055.91841.04141,1.18658l-5.44081,3.14125z" fill="url(#a)" fill-rule="evenodd"/>
    </g>
    <path transform="translate(7.3614 -7.7812)" d="m221.28 145.94c0.56722 5.6736-4.1562 12.487-15.139 14.257-4.6476 18.645-14.167 27.345-29.249 29.543-2.9569 12.851-6.502 15.461-14.257 15.139l49.238 11.317c0.52883-3.1385 5.0469-8.2121 8.8009-11.966s9.2954-8.3241 12.07-8.9049l-11.464-49.385z" fill="url(#j)" fill-rule="evenodd"/>
    <path transform="translate(7.3614 -7.7812)" d="m221.28 145.94c0.56722 5.6736-4.1562 12.487-15.139 14.257-4.6476 18.645-14.167 27.345-29.249 29.543-2.9569 12.851-6.502 15.461-14.257 15.139l49.238 11.317c0.52883-3.1385 5.0469-8.2121 8.8009-11.966s9.2954-8.3241 12.07-8.9049l-11.464-49.385z" fill="url(#i)" fill-rule="evenodd" opacity=".75709"/>
    <path transform="matrix(4.1729 4.1729 -9.9065 9.9065 135.27 -126.4)" d="m14.71 14.575c-1.848 0-3.3461-1.3285-3.3461-2.9673s1.4981-2.9673 3.3461-2.9673v5.9346z" fill="url(#b)" fill-rule="evenodd"/>
    <path transform="matrix(4.3531 0 0 4.3531 18.749 -43.693)" d="m50.57305,53.21002c.08255.0163.65806,2.64414.65806,2.64414 .76266,2.88653.91389,2.96624.17278,2.7427-.723-.35663-1.71004-1.51917-2.17111-2.1768-.44044-.67086-1.01934-1.73893.08043-2.57226 .38412-.35825.92033-.70483 1.25984-.63777z" fill="#fff" fill-opacity=".29918" fill-rule="evenodd" filter="url(#e)"/>
    <path transform="translate(7.3614 -7.7812)" d="m96.001 25.168c-12.561 0.02595-23.54 7.8688-32.648 15.78 5.8367-2.2938 11.508-5.2226 17.923-4.0247 6.1332 1.1452 4.4966 4.2585 7.7531 5.9979 3.5274-3.5274 11.198-11.097 14.725-14.624-2.0264-2.0528-4.9276-2.9823-7.7539-3.1288z" fill="#fff" fill-opacity=".18443" fill-rule="evenodd"/>
    <path d="m96.428 35.247 117.13 117.13" fill="#86eb86" fill-rule="evenodd" stroke="#ff954d" stroke-width="1.3075"/>
    <path d="m66.982 64.648 117.27 117.27" fill="#f60" fill-rule="evenodd" stroke="#c14c00" stroke-width="1.3091"/>
   </g>
  </g>
  <g transform="translate(504.27 8.3622)">
   <g transform="translate(2.7948 -2.4328)">
    <path transform="matrix(4.8674 0 0 4.3531 -14.893 -7.7798)" d="m10.033 47.875c-1.909 0-4.3495 2.1937-5.449 4.8887s-0.13987 4.8923 2.1509 4.8966l31.448 0.0598 3.4879 0.0066 0.02859 5.4e-5 0.07746-0.03203 7.6578-3.1276c-0.0081-0.0051-0.02555-0.01081-0.03364-0.01616l3.1826-1.4311c0.27376-0.14143 0.08252-0.49345-0.3263-0.62943l-4.2534-1.4227-0.67321-0.22614-1.4246-0.5005-6.7361-2.4663h-29.137" fill="url(#c)" fill-rule="evenodd" filter="url(#d)"/>
    <g fill="#906600">
     <path transform="matrix(2.9112 2.9112 -3.1515 3.1515 210.41 132.99)" d="m13.72796,10.9783v-7.44517l5.3994,3.11734c.43545.25651.47055.91841.04141,1.18658l-5.44081,3.14125z" fill="#906600" fill-rule="evenodd"/>
    </g>
    <path transform="translate(7.3614 -7.7812)" d="m95.924 25.168c-9.4755-0.54649-23.471 6.4667-35.641 18.637-16.227 16.227-23.079 35.687-15.372 43.395 1.8121 1.8121 4.2961 2.7281 7.2098 2.9927l-1.4964-1.4964c0.05742-0.07754 0.06819-0.20422 0.13603-0.27207 0.29914-0.29914 0.74102-0.44468 1.2243-0.54413 1.5075-0.31022 3.9937 0.30159 7.0737 1.7684 8.7789-1.9405 19.589-8.2986 29.247-17.956 16.227-16.227 23.079-35.687 15.372-43.395-1.9269-1.9269-4.5954-2.9466-7.7539-3.1288z" fill="#c58b00" fill-rule="evenodd"/>
    <g fill="#f5d500" fill-rule="evenodd">
     <path transform="matrix(4.3531 0 0 4.3531 -13.296 -9.8204)" d="m28.562 6.9688-13.5 13.531 27 27 13.531-13.5-27.031-27.031zm-11.875 13.688c1.6653-0.3427 7.9461 4.3524 14.625 11.031 7.1241 7.1241 12.006 13.807 10.906 14.906-0.01559 0.01559-0.04469 0.01806-0.0625 0.03125l-25.781-25.781c0.01319-0.01781 0.01566-0.04691 0.03125-0.0625 0.06872-0.06872 0.17023-0.10215 0.28125-0.125z"/>
     <path transform="matrix(4.3531 0 0 4.3531 -13.296 -9.8204)" d="m52.875 31.312-11.844 11.844c1.1274 1.7746 1.6093 3.0157 1.1875 3.4375-0.01559 0.01559-0.04469 0.01806-0.0625 0.03125l-2.2812-2.3125-0.5 0.5 2.7188 2.6875 8.75 2.0312 6.7812-6.75-2.0312-8.7812-2.7188-2.6875z"/>
    </g>
    <path transform="translate(7.3614 -7.7812)" d="m103.7 28.358-14.698 14.698 122.58 122.58 11.611-11.611-1.9107-8.0839-9.8476-9.8476-107.74-107.74z" fill="#fff" fill-opacity=".52459" fill-rule="evenodd"/>
    <path transform="translate(7.3614 -7.7812)" d="m59.607 72.451-14.698 14.698 108.18 108.18 9.4067 9.4067 0.44093 0.14698 9.5537 2.2047 10.876-10.876-123.76-123.76z" fill="#f5d600" fill-opacity=".55328" fill-rule="evenodd"/>
    <path transform="matrix(4.3531 0 0 4.3531 18.749 -43.693)" d="m12.66984,24.34375-.03125.03125h-.03125l-.03125.03125-3.875,3.875 26.375,26.375 3.875-3.875 .03125-.03125c.00091-.0104.00091-.02085 0-.03125 .01442-.01858.02504-.03982.03125-.0625 .00091-.0104.00091-.02085 0-.03125l-.03125-.03125c.00091-.0104.00091-.02085 0-.03125l-.03125-.03125-26.125-26.125-.03125-.03125h-.03125c-.01858-.01442-.03982-.02504-.0625-.03125h-.03125zm-3.25,4.28125c.31548-.06492 1.02319.13566 1.9375.625s2.04187,1.23942 3.34375,2.21875c2.60376,1.95867 5.85308,4.79058 9.1875,8.125 3.55672,3.55672 6.56588,7 8.53125,9.6875 .98268,1.34375 1.68824,2.50161 2.09375,3.375 .20275.4367.33688.82084.375,1.09375 .02796.20013.0119.31447-.03125.40625l-25.5-25.5c.02612-.0088.02808-.02417.0625-.03125z" fill="#f5d500" fill-rule="evenodd" filter="url(#f)" opacity=".98"/>
    <path transform="matrix(4.3531 0 0 4.3531 18.749 -43.693)" d="m11.062 24.906-3.375 3.375 24.875 24.844 2.1562 2.1562 0.09375 0.03125 2.1875 0.5 2.5-2.5-28.438-28.406z" fill-opacity=".41569" fill-rule="evenodd"/>
    <path transform="translate(7.3614 -7.7812)" d="m221.28 145.94c0.56722 5.6736-4.1562 12.487-15.139 14.257-4.6476 18.645-14.167 27.345-29.249 29.543-2.9569 12.851-6.502 15.461-14.257 15.139l49.238 11.317c0.52883-3.1385 5.0469-8.2121 8.8009-11.966s9.2954-8.3241 12.07-8.9049l-11.464-49.385z" fill="#fd5" fill-rule="evenodd"/>
    <g transform="matrix(4.7033 4.7033 -4.5224 4.5224 173.47 -88.867)" fill="url(#a)">
     <path transform="matrix(.61897 0 0 .69686 27.512 20.444)" d="m13.72796,10.9783v-7.44517l5.3994,3.11734c.43545.25651.47055.91841.04141,1.18658l-5.44081,3.14125z" fill="url(#a)" fill-rule="evenodd"/>
    </g>
    <path transform="translate(7.3614 -7.7812)" d="m221.28 145.94c0.56722 5.6736-4.1562 12.487-15.139 14.257-4.6476 18.645-14.167 27.345-29.249 29.543-2.9569 12.851-6.502 15.461-14.257 15.139l49.238 11.317c0.52883-3.1385 5.0469-8.2121 8.8009-11.966s9.2954-8.3241 12.07-8.9049l-11.464-49.385z" fill="url(#j)" fill-rule="evenodd"/>
    <path transform="translate(7.3614 -7.7812)" d="m221.28 145.94c0.56722 5.6736-4.1562 12.487-15.139 14.257-4.6476 18.645-14.167 27.345-29.249 29.543-2.9569 12.851-6.502 15.461-14.257 15.139l49.238 11.317c0.52883-3.1385 5.0469-8.2121 8.8009-11.966s9.2954-8.3241 12.07-8.9049l-11.464-49.385z" fill="url(#i)" fill-rule="evenodd" opacity=".75709"/>
    <path transform="matrix(4.1729 4.1729 -9.9065 9.9065 135.27 -126.4)" d="m14.71 14.575c-1.848 0-3.3461-1.3285-3.3461-2.9673s1.4981-2.9673 3.3461-2.9673v5.9346z" fill="url(#b)" fill-rule="evenodd"/>
    <path transform="matrix(4.3531 0 0 4.3531 18.749 -43.693)" d="m50.57305,53.21002c.08255.0163.65806,2.64414.65806,2.64414 .76266,2.88653.91389,2.96624.17278,2.7427-.723-.35663-1.71004-1.51917-2.17111-2.1768-.44044-.67086-1.01934-1.73893.08043-2.57226 .38412-.35825.92033-.70483 1.25984-.63777z" fill="#fff" fill-opacity=".29918" fill-rule="evenodd" filter="url(#e)"/>
    <path transform="translate(7.3614 -7.7812)" d="m96.001 25.168c-12.561 0.02595-23.54 7.8688-32.648 15.78 5.8367-2.2938 11.508-5.2226 17.923-4.0247 6.1332 1.1452 4.4966 4.2585 7.7531 5.9979 3.5274-3.5274 11.198-11.097 14.725-14.624-2.0264-2.0528-4.9276-2.9823-7.7539-3.1288z" fill="#fff" fill-opacity=".18443" fill-rule="evenodd"/>
    <path d="m96.428 35.247 117.13 117.13" fill="#f6d80e" fill-rule="evenodd" stroke="#f9e352" stroke-width="1.3075"/>
    <path d="m66.982 64.648 117.27 117.27" fill="#f5d500" fill-rule="evenodd" stroke="#cbb000" stroke-width="1.3091"/>
   </g>
  </g>
  <g transform="translate(1.7143 270.29)">
   <g transform="matrix(4.3531 0 0 4.3531 -10.5 -12.253)">
    <path transform="matrix(1.1182 0 0 1 -.36696 .46875)" d="m10.033 47.875c-1.909 0-4.3495 2.1937-5.449 4.8887s-0.13987 4.8923 2.1509 4.8966l31.448 0.0598 3.4879 0.0066 0.02859 5.4e-5 0.07746-0.03203 7.6578-3.1276c-0.0081-0.0051-0.02555-0.01081-0.03364-0.01616l3.1826-1.4311c0.27376-0.14143 0.08252-0.49345-0.3263-0.62943l-4.2534-1.4227-0.67321-0.22614-1.4246-0.5005-6.7361-2.4663h-29.137" fill="url(#c)" fill-rule="evenodd" filter="url(#d)"/>
    <g fill="#02126d">
     <path transform="matrix(.66878 .66878 -.72397 .72397 51.391 32.806)" d="m13.72796,10.9783v-7.44517l5.3994,3.11734c.43545.25651.47055.91841.04141,1.18658l-5.44081,3.14125z" fill="#02126d" fill-rule="evenodd"/>
    </g>
    <path d="m26.78125,6.25c-2.17674-.12554-5.39179,1.48554-8.1875,4.28125-3.72761,3.72761-5.30186,8.19814-3.53125,9.96875 .41629.41629.98692.6267 1.65625.6875l-.34375-.34375c.01319-.01781.01566-.04691.03125-.0625 .06872-.06872.17023-.10215.28125-.125 .3463-.07127.91745.06928 1.625.40625 2.01673-.44579 4.50013-1.90638 6.71875-4.125 3.72761-3.72761 5.30186-8.19814 3.53125-9.96875-.44265-.44265-1.05567-.6769-1.78125-.71875z" fill="#112281" fill-rule="evenodd"/>
    <g fill="#2841d5" fill-rule="evenodd">
     <path transform="translate(-.00016 5.3484e-5)" d="m28.562 6.9688-13.5 13.531 27 27 13.531-13.5-27.031-27.031zm-11.875 13.688c1.6653-0.3427 7.9461 4.3524 14.625 11.031 7.1241 7.1241 12.006 13.807 10.906 14.906-0.01559 0.01559-0.04469 0.01806-0.0625 0.03125l-25.781-25.781c0.01319-0.01781 0.01566-0.04691 0.03125-0.0625 0.06872-0.06872 0.17023-0.10215 0.28125-0.125z"/>
     <path transform="translate(-.00016 5.3484e-5)" d="m52.875 31.312-11.844 11.844c1.1274 1.7746 1.6093 3.0157 1.1875 3.4375-0.01559 0.01559-0.04469 0.01806-0.0625 0.03125l-2.2812-2.3125-0.5 0.5 2.7188 2.6875 8.75 2.0312 6.7812-6.75-2.0312-8.7812-2.7188-2.6875z"/>
    </g>
    <path transform="translate(7.3614 -7.7812)" d="m21.206 14.764-3.3765 3.3765 28.16 28.16 2.6674-2.6674-0.43894-1.857-2.2622-2.2622-24.749-24.749z" fill="#fff" fill-opacity=".52459" fill-rule="evenodd"/>
    <path transform="translate(7.3614 -7.7812)" d="m11.077 24.893-3.3765 3.3765 24.851 24.851 2.1609 2.1609 0.10129 0.03376 2.1947 0.50647 2.4986-2.4986-28.43-28.43z" fill="#2a42d7" fill-opacity=".89344" fill-rule="evenodd"/>
    <path d="m20.03125,16.5625-.03125.03125h-.03125l-.03125.03125-3.875,3.875 26.375,26.375 3.875-3.875 .03125-.03125c.00091-.0104.00091-.02085 0-.03125 .01442-.01858.02504-.03982.03125-.0625 .00091-.0104.00091-.02085 0-.03125l-.03125-.03125c.00091-.0104.00091-.02085 0-.03125l-.03125-.03125-26.125-26.125-.03125-.03125h-.03125c-.01858-.01442-.03982-.02504-.0625-.03125h-.03125zm-3.25,4.28125c.31548-.06492 1.02319.13566 1.9375.625s2.04187,1.23942 3.34375,2.21875c2.60376,1.95867 5.85308,4.79058 9.1875,8.125 3.55672,3.55672 6.56588,7 8.53125,9.6875 .98268,1.34375 1.68824,2.50161 2.09375,3.375 .20275.4367.33688.82084.375,1.09375 .02796.20013.0119.31447-.03125.40625l-25.5-25.5c.02612-.0088.02808-.02417.0625-.03125z" fill="#2840d5" fill-rule="evenodd" filter="url(#m)" opacity=".98"/>
    <path transform="translate(7.3614 -7.7812)" d="m11.062 24.906-3.375 3.375 24.875 24.844 2.1562 2.1562 0.09375 0.03125 2.1875 0.5 2.5-2.5-28.438-28.406z" fill-opacity=".41569" fill-rule="evenodd"/>
    <path transform="translate(7.3614 -7.7812)" d="m48.218 41.776c0.1303 1.3034-0.95477 2.8686-3.4778 3.2752-1.0677 4.2832-3.2545 6.2819-6.7192 6.7867-0.67928 2.9521-1.4937 3.5518-3.2752 3.4778l11.311 2.5999c0.12149-0.72099 1.1594-1.8865 2.0218-2.7489s2.1354-1.9122 2.7728-2.0456l-2.6336-11.345z" fill="#fd5" fill-rule="evenodd"/>
    <g transform="matrix(1.0805 1.0805 -1.0389 1.0389 42.905 -18.159)" fill="url(#b)">
     <path transform="matrix(.61897 0 0 .69686 27.512 20.444)" d="m13.72796,10.9783v-7.44517l5.3994,3.11734c.43545.25651.47055.91841.04141,1.18658l-5.44081,3.14125z" fill="url(#a)" fill-rule="evenodd"/>
    </g>
    <path transform="translate(7.3614 -7.7812)" d="m48.218 41.776c0.1303 1.3034-0.95477 2.8686-3.4778 3.2752-1.0677 4.2832-3.2545 6.2819-6.7192 6.7867-0.67928 2.9521-1.4937 3.5518-3.2752 3.4778l11.311 2.5999c0.12149-0.72099 1.1594-1.8865 2.0218-2.7489s2.1354-1.9122 2.7728-2.0456l-2.6336-11.345z" fill="url(#g)" fill-rule="evenodd"/>
    <path transform="translate(7.3614 -7.7812)" d="m48.218 41.776c0.1303 1.3034-0.95477 2.8686-3.4778 3.2752-1.0677 4.2832-3.2545 6.2819-6.7192 6.7867-0.67928 2.9521-1.4937 3.5518-3.2752 3.4778l11.311 2.5999c0.12149-0.72099 1.1594-1.8865 2.0218-2.7489s2.1354-1.9122 2.7728-2.0456l-2.6336-11.345z" fill="url(#h)" fill-rule="evenodd" opacity=".75709"/>
    <path transform="matrix(.95861 .95861 -2.2758 2.2758 34.129 -26.782)" d="m14.71 14.575c-1.848 0-3.3461-1.3285-3.3461-2.9673s1.4981-2.9673 3.3461-2.9673v5.9346z" fill="url(#b)" fill-rule="evenodd"/>
    <path transform="translate(7.3614 -7.7812)" d="m50.57305,53.21002c.08255.0163.65806,2.64414.65806,2.64414 .76266,2.88653.91389,2.96624.17278,2.7427-.723-.35663-1.71004-1.51917-2.17111-2.1768-.44044-.67086-1.01934-1.73893.08043-2.57226 .38412-.35825.92033-.70483 1.25984-.63777z" fill="#fff" fill-opacity=".29918" fill-rule="evenodd" filter="url(#e)"/>
    <path transform="translate(7.3614 -7.7812)" d="m19.438 14.031c-2.8856 6e-3 -5.4077 1.8076-7.5 3.625 1.3408-0.52693 2.6436-1.1998 4.1174-0.92456 1.4089 0.26309 1.033 0.97828 1.7811 1.3779 0.81034-0.81034 2.5724-2.5492 3.3828-3.3596-0.46552-0.47157-1.132-0.6851-1.7812-0.71875z" fill="#fff" fill-opacity=".18443" fill-rule="evenodd"/>
    <path d="m25.206 10.353 26.908 26.908" fill="#86eb86" fill-rule="evenodd" stroke="#5b6edf" stroke-width=".30037"/>
    <path d="m18.442 17.107 26.941 26.941" fill="none" stroke="#1b2e99" stroke-width=".30073"/>
   </g>
  </g>
  <g transform="translate(755.54 8.3622)">
   <g transform="matrix(4.3531 0 0 4.3531 -10.5 -12.253)">
    <path transform="matrix(1.1182 0 0 1 -.36696 .46875)" d="m10.033 47.875c-1.909 0-4.3495 2.1937-5.449 4.8887s-0.13987 4.8923 2.1509 4.8966l31.448 0.0598 3.4879 0.0066 0.02859 5.4e-5 0.07746-0.03203 7.6578-3.1276c-0.0081-0.0051-0.02555-0.01081-0.03364-0.01616l3.1826-1.4311c0.27376-0.14143 0.08252-0.49345-0.3263-0.62943l-4.2534-1.4227-0.67321-0.22614-1.4246-0.5005-6.7361-2.4663h-29.137" fill="url(#c)" fill-rule="evenodd" filter="url(#d)"/>
    <g transform="translate(7.3614 -7.7812)" fill-rule="evenodd">
     <path transform="translate(-7.3616 7.7812)" d="m28.562 6.9688-13.5 13.531 27 27 13.531-13.5-27.031-27.031zm-11.875 13.688c1.6653-0.3427 7.9461 4.3524 14.625 11.031 7.1241 7.1241 12.006 13.807 10.906 14.906-0.01559 0.01559-0.04469 0.01806-0.0625 0.03125l-25.781-25.781c0.01319-0.01781 0.01566-0.04691 0.03125-0.0625 0.06872-0.06872 0.17023-0.10215 0.28125-0.125z" fill="#00d400"/>
     <path transform="translate(-7.3616 7.7812)" d="m52.875 31.312-11.844 11.844c1.1274 1.7746 1.6093 3.0157 1.1875 3.4375-0.01559 0.01559-0.04469 0.01806-0.0625 0.03125l-2.2812-2.3125-0.5 0.5 2.7188 2.6875 8.75 2.0312 6.7812-6.75-2.0312-8.7812-2.7188-2.6875z" fill="#00d400"/>
     <path transform="matrix(.66878 .66878 -.72397 .72397 44.03 40.587)" d="m13.72796,10.9783v-7.44517l5.3994,3.11734c.43545.25651.47055.91841.04141,1.18658l-5.44081,3.14125z" fill="#050"/>
     <path transform="translate(-7.3614 7.7812)" d="m26.78125,6.25c-2.17674-.12554-5.39179,1.48554-8.1875,4.28125-3.72761,3.72761-5.30186,8.19814-3.53125,9.96875 .41629.41629.98692.6267 1.65625.6875l-.34375-.34375c.01319-.01781.01566-.04691.03125-.0625 .06872-.06872.17023-.10215.28125-.125 .3463-.07127.91745.06928 1.625.40625 2.01673-.44579 4.50013-1.90638 6.71875-4.125 3.72761-3.72761 5.30186-8.19814 3.53125-9.96875-.44265-.44265-1.05567-.6769-1.78125-.71875z" fill="#00d400"/>
     <path d="m21.206 14.764-3.3765 3.3765 28.16 28.16 2.6674-2.6674-0.43894-1.857-2.2622-2.2622-24.749-24.749z" fill="#fff" fill-opacity=".52459"/>
     <path d="m11.077 24.893-3.3765 3.3765 24.851 24.851 2.1609 2.1609 0.10129 0.03376 2.1947 0.50647 2.4986-2.4986-28.43-28.43z" fill="#00d400" fill-opacity=".65714"/>
     <path transform="translate(-7.3614 7.7812)" d="m20.03125,16.5625-.03125.03125h-.03125l-.03125.03125-3.875,3.875 26.375,26.375 3.875-3.875 .03125-.03125c.00091-.0104.00091-.02085 0-.03125 .01442-.01858.02504-.03982.03125-.0625 .00091-.0104.00091-.02085 0-.03125l-.03125-.03125c.00091-.0104.00091-.02085 0-.03125l-.03125-.03125-26.125-26.125-.03125-.03125h-.03125c-.01858-.01442-.03982-.02504-.0625-.03125h-.03125zm-3.25,4.28125c.31548-.06492 1.02319.13566 1.9375.625s2.04187,1.23942 3.34375,2.21875c2.60376,1.95867 5.85308,4.79058 9.1875,8.125 3.55672,3.55672 6.56588,7 8.53125,9.6875 .98268,1.34375 1.68824,2.50161 2.09375,3.375 .20275.4367.33688.82084.375,1.09375 .02796.20013.0119.31447-.03125.40625l-25.5-25.5c.02612-.0088.02808-.02417.0625-.03125z" fill="#00d400" filter="url(#f)" opacity=".98"/>
     <path d="m11.062 24.906-3.375 3.375 24.875 24.844 2.1562 2.1562 0.09375 0.03125 2.1875 0.5 2.5-2.5-28.438-28.406z" fill-opacity=".41569"/>
     <path d="m48.218 41.776c0.1303 1.3034-0.95477 2.8686-3.4778 3.2752-1.0677 4.2832-3.2545 6.2819-6.7192 6.7867-0.67928 2.9521-1.4937 3.5518-3.2752 3.4778l11.311 2.5999c0.12149-0.72099 1.1594-1.8865 2.0218-2.7489s2.1354-1.9122 2.7728-2.0456l-2.6336-11.345z" fill="#fd5"/>
    </g>
    <g transform="matrix(1.0805 1.0805 -1.0389 1.0389 42.905 -18.159)" fill="url(#a)">
     <path transform="matrix(.61897 0 0 .69686 27.512 20.444)" d="m13.72796,10.9783v-7.44517l5.3994,3.11734c.43545.25651.47055.91841.04141,1.18658l-5.44081,3.14125z" fill="url(#a)" fill-rule="evenodd"/>
    </g>
    <path transform="translate(7.3614 -7.7812)" d="m48.218 41.776c0.1303 1.3034-0.95477 2.8686-3.4778 3.2752-1.0677 4.2832-3.2545 6.2819-6.7192 6.7867-0.67928 2.9521-1.4937 3.5518-3.2752 3.4778l11.311 2.5999c0.12149-0.72099 1.1594-1.8865 2.0218-2.7489s2.1354-1.9122 2.7728-2.0456l-2.6336-11.345z" fill="url(#g)" fill-rule="evenodd"/>
    <path transform="translate(7.3614 -7.7812)" d="m48.218 41.776c0.1303 1.3034-0.95477 2.8686-3.4778 3.2752-1.0677 4.2832-3.2545 6.2819-6.7192 6.7867-0.67928 2.9521-1.4937 3.5518-3.2752 3.4778l11.311 2.5999c0.12149-0.72099 1.1594-1.8865 2.0218-2.7489s2.1354-1.9122 2.7728-2.0456l-2.6336-11.345z" fill="url(#h)" fill-rule="evenodd" opacity=".75709"/>
    <path transform="matrix(.95861 .95861 -2.2758 2.2758 34.129 -26.782)" d="m14.71 14.575c-1.848 0-3.3461-1.3285-3.3461-2.9673s1.4981-2.9673 3.3461-2.9673v5.9346z" fill="url(#b)" fill-rule="evenodd"/>
    <path transform="translate(7.3614 -7.7812)" d="m50.57305,53.21002c.08255.0163.65806,2.64414.65806,2.64414 .76266,2.88653.91389,2.96624.17278,2.7427-.723-.35663-1.71004-1.51917-2.17111-2.1768-.44044-.67086-1.01934-1.73893.08043-2.57226 .38412-.35825.92033-.70483 1.25984-.63777z" fill="#fff" fill-opacity=".29918" fill-rule="evenodd" filter="url(#e)"/>
    <path transform="translate(7.3614 -7.7812)" d="m19.438 14.031c-2.8856 6e-3 -5.4077 1.8076-7.5 3.625 1.3408-0.52693 2.6436-1.1998 4.1174-0.92456 1.4089 0.26309 1.033 0.97828 1.7811 1.3779 0.81034-0.81034 2.5724-2.5492 3.3828-3.3596-0.46552-0.47157-1.132-0.6851-1.7812-0.71875z" fill="#fff" fill-opacity=".18443" fill-rule="evenodd"/>
    <path d="m25.206 10.353 26.908 26.908" fill="#86eb86" fill-rule="evenodd" stroke="#57e557" stroke-width=".30037"/>
    <path d="m18.442 17.107 26.941 26.941" fill="none" stroke="#00b200" stroke-width=".30073"/>
   </g>
  </g>
  <g transform="translate(504.27 270.29)">
   <g transform="translate(2.7948 -2.4328)">
    <path transform="matrix(4.8674 0 0 4.3531 -14.893 -7.7798)" d="m10.033 47.875c-1.909 0-4.3495 2.1937-5.449 4.8887s-0.13987 4.8923 2.1509 4.8966l31.448 0.0598 3.4879 0.0066 0.02859 5.4e-5 0.07746-0.03203 7.6578-3.1276c-0.0081-0.0051-0.02555-0.01081-0.03364-0.01616l3.1826-1.4311c0.27376-0.14143 0.08252-0.49345-0.3263-0.62943l-4.2534-1.4227-0.67321-0.22614-1.4246-0.5005-6.7361-2.4663h-29.137" fill="url(#c)" fill-rule="evenodd" filter="url(#d)"/>
    <path transform="translate(7.3614 -7.7812)" d="m95.924 25.168c-9.4755-0.54649-23.471 6.4667-35.641 18.637-16.227 16.227-23.079 35.687-15.372 43.395 1.8121 1.8121 4.2961 2.7281 7.2098 2.9927l-1.4964-1.4964c0.05742-0.07754 0.06819-0.20422 0.13603-0.27207 0.29914-0.29914 0.74102-0.44468 1.2243-0.54413 1.5075-0.31022 3.9937 0.30159 7.0737 1.7684 8.7789-1.9405 19.589-8.2986 29.247-17.956 16.227-16.227 23.079-35.687 15.372-43.395-1.9269-1.9269-4.5954-2.9466-7.7539-3.1288z" fill="#4d4d4d" fill-rule="evenodd"/>
    <g fill="#808080" fill-rule="evenodd">
     <path transform="matrix(4.3531 0 0 4.3531 -13.296 -9.8204)" d="m28.562 6.9688-13.5 13.531 27 27 13.531-13.5-27.031-27.031zm-11.875 13.688c1.6653-0.3427 7.9461 4.3524 14.625 11.031 7.1241 7.1241 12.006 13.807 10.906 14.906-0.01559 0.01559-0.04469 0.01806-0.0625 0.03125l-25.781-25.781c0.01319-0.01781 0.01566-0.04691 0.03125-0.0625 0.06872-0.06872 0.17023-0.10215 0.28125-0.125z"/>
     <path transform="matrix(4.3531 0 0 4.3531 -13.296 -9.8204)" d="m52.875 31.312-11.844 11.844c1.1274 1.7746 1.6093 3.0157 1.1875 3.4375-0.01559 0.01559-0.04469 0.01806-0.0625 0.03125l-2.2812-2.3125-0.5 0.5 2.7188 2.6875 8.75 2.0312 6.7812-6.75-2.0312-8.7812-2.7188-2.6875z"/>
    </g>
    <path transform="matrix(2.9112 2.9112 -3.1515 3.1515 210.41 132.99)" d="m13.72796,10.9783v-7.44517l5.3994,3.11734c.43545.25651.47055.91841.04141,1.18658l-5.44081,3.14125z" fill-rule="evenodd"/>
    <path transform="translate(7.3614 -7.7812)" d="m103.7 28.358-14.698 14.698 122.58 122.58 11.611-11.611-1.9107-8.0839-9.8476-9.8476-107.74-107.74z" fill="#fff" fill-opacity=".52459" fill-rule="evenodd"/>
    <path transform="translate(7.3614 -7.7812)" d="m59.607 72.451-14.698 14.698 108.18 108.18 9.4067 9.4067 0.44093 0.14698 9.5537 2.2047 10.876-10.876-123.76-123.76z" fill="#808080" fill-opacity=".81967" fill-rule="evenodd"/>
    <path transform="matrix(4.3531 0 0 4.3531 18.749 -43.693)" d="m12.66984,24.34375-.03125.03125h-.03125l-.03125.03125-3.875,3.875 26.375,26.375 3.875-3.875 .03125-.03125c.00091-.0104.00091-.02085 0-.03125 .01442-.01858.02504-.03982.03125-.0625 .00091-.0104.00091-.02085 0-.03125l-.03125-.03125c.00091-.0104.00091-.02085 0-.03125l-.03125-.03125-26.125-26.125-.03125-.03125h-.03125c-.01858-.01442-.03982-.02504-.0625-.03125h-.03125zm-3.25,4.28125c.31548-.06492 1.02319.13566 1.9375.625s2.04187,1.23942 3.34375,2.21875c2.60376,1.95867 5.85308,4.79058 9.1875,8.125 3.55672,3.55672 6.56588,7 8.53125,9.6875 .98268,1.34375 1.68824,2.50161 2.09375,3.375 .20275.4367.33688.82084.375,1.09375 .02796.20013.0119.31447-.03125.40625l-25.5-25.5c.02612-.0088.02808-.02417.0625-.03125z" fill="#808080" fill-rule="evenodd" filter="url(#f)" opacity=".98"/>
    <path transform="matrix(4.3531 0 0 4.3531 18.749 -43.693)" d="m11.062 24.906-3.375 3.375 24.875 24.844 2.1562 2.1562 0.09375 0.03125 2.1875 0.5 2.5-2.5-28.438-28.406z" fill-opacity=".41569" fill-rule="evenodd"/>
    <path transform="translate(7.3614 -7.7812)" d="m221.28 145.94c0.56722 5.6736-4.1562 12.487-15.139 14.257-4.6476 18.645-14.167 27.345-29.249 29.543-2.9569 12.851-6.502 15.461-14.257 15.139l49.238 11.317c0.52883-3.1385 5.0469-8.2121 8.8009-11.966s9.2954-8.3241 12.07-8.9049l-11.464-49.385z" fill="#fd5" fill-rule="evenodd"/>
    <g transform="matrix(4.7033 4.7033 -4.5224 4.5224 173.47 -88.867)" fill="url(#a)">
     <path transform="matrix(.61897 0 0 .69686 27.512 20.444)" d="m13.72796,10.9783v-7.44517l5.3994,3.11734c.43545.25651.47055.91841.04141,1.18658l-5.44081,3.14125z" fill="url(#a)" fill-rule="evenodd"/>
    </g>
    <path transform="translate(7.3614 -7.7812)" d="m221.28 145.94c0.56722 5.6736-4.1562 12.487-15.139 14.257-4.6476 18.645-14.167 27.345-29.249 29.543-2.9569 12.851-6.502 15.461-14.257 15.139l49.238 11.317c0.52883-3.1385 5.0469-8.2121 8.8009-11.966s9.2954-8.3241 12.07-8.9049l-11.464-49.385z" fill="url(#j)" fill-rule="evenodd"/>
    <path transform="translate(7.3614 -7.7812)" d="m221.28 145.94c0.56722 5.6736-4.1562 12.487-15.139 14.257-4.6476 18.645-14.167 27.345-29.249 29.543-2.9569 12.851-6.502 15.461-14.257 15.139l49.238 11.317c0.52883-3.1385 5.0469-8.2121 8.8009-11.966s9.2954-8.3241 12.07-8.9049l-11.464-49.385z" fill="url(#i)" fill-rule="evenodd" opacity=".75709"/>
    <path transform="matrix(4.1729 4.1729 -9.9065 9.9065 135.27 -126.4)" d="m14.71 14.575c-1.848 0-3.3461-1.3285-3.3461-2.9673s1.4981-2.9673 3.3461-2.9673v5.9346z" fill="url(#b)" fill-rule="evenodd"/>
    <path transform="matrix(4.3531 0 0 4.3531 18.749 -43.693)" d="m50.57305,53.21002c.08255.0163.65806,2.64414.65806,2.64414 .76266,2.88653.91389,2.96624.17278,2.7427-.723-.35663-1.71004-1.51917-2.17111-2.1768-.44044-.67086-1.01934-1.73893.08043-2.57226 .38412-.35825.92033-.70483 1.25984-.63777z" fill="#fff" fill-opacity=".29918" fill-rule="evenodd" filter="url(#e)"/>
    <path transform="translate(7.3614 -7.7812)" d="m96.001 25.168c-12.561 0.02595-23.54 7.8688-32.648 15.78 5.8367-2.2938 11.508-5.2226 17.923-4.0247 6.1332 1.1452 4.4966 4.2585 7.7531 5.9979 3.5274-3.5274 11.198-11.097 14.725-14.624-2.0264-2.0528-4.9276-2.9823-7.7539-3.1288z" fill="#fff" fill-opacity=".18443" fill-rule="evenodd"/>
    <path d="m96.428 35.247 117.13 117.13" fill="#86eb86" fill-rule="evenodd" stroke="#929292" stroke-width="1.3075"/>
    <path d="m66.982 64.648 117.27 117.27" fill="none" stroke="#5f5f5f" stroke-width="1.3091"/>
   </g>
  </g>
  <path d="m820.97 298.4h149.78a15.39 15.39 0 0 1 15.39 15.39v149.78a15.39 15.39 0 0 1 -15.39 15.39h-149.78a15.39 15.39 0 0 1 -15.39 -15.39v-149.78a15.39 15.39 0 0 1 15.39 -15.39" fill="#ac05d5" fill-rule="evenodd" opacity=".98" stroke="#eeb3fc" stroke-linejoin="bevel" stroke-width="1.4805"/>
  <g transform="matrix(.63145 0 0 .63145 816.06 311.46)">
   <g transform="translate(2.7948 -2.4328)">
    <path transform="matrix(4.8674 0 0 4.3531 -14.893 -7.7798)" d="m10.033 47.875c-1.909 0-4.3495 2.1937-5.449 4.8887s-0.13987 4.8923 2.1509 4.8966l31.448 0.0598 3.4879 0.0066 0.02859 5.4e-5 0.07746-0.03203 7.6578-3.1276c-0.0081-0.0051-0.02555-0.01081-0.03364-0.01616l3.1826-1.4311c0.27376-0.14143 0.08252-0.49345-0.3263-0.62943l-4.2534-1.4227-0.67321-0.22614-1.4246-0.5005-6.7361-2.4663h-29.137" fill="url(#c)" fill-rule="evenodd" filter="url(#d)"/>
    <path transform="translate(7.3614 -7.7812)" d="m95.924 25.168c-9.4755-0.54649-23.471 6.4667-35.641 18.637-16.227 16.227-23.079 35.687-15.372 43.395 1.8121 1.8121 4.2961 2.7281 7.2098 2.9927l-1.4964-1.4964c0.05742-0.07754 0.06819-0.20422 0.13603-0.27207 0.29914-0.29914 0.74102-0.44468 1.2243-0.54413 1.5075-0.31022 3.9937 0.30159 7.0737 1.7684 8.7789-1.9405 19.589-8.2986 29.247-17.956 16.227-16.227 23.079-35.687 15.372-43.395-1.9269-1.9269-4.5954-2.9466-7.7539-3.1288z" fill="#4d4d4d" fill-rule="evenodd"/>
    <g fill="#808080" fill-rule="evenodd">
     <path transform="matrix(4.3531 0 0 4.3531 -13.296 -9.8204)" d="m28.562 6.9688-13.5 13.531 27 27 13.531-13.5-27.031-27.031zm-11.875 13.688c1.6653-0.3427 7.9461 4.3524 14.625 11.031 7.1241 7.1241 12.006 13.807 10.906 14.906-0.01559 0.01559-0.04469 0.01806-0.0625 0.03125l-25.781-25.781c0.01319-0.01781 0.01566-0.04691 0.03125-0.0625 0.06872-0.06872 0.17023-0.10215 0.28125-0.125z"/>
     <path transform="matrix(4.3531 0 0 4.3531 -13.296 -9.8204)" d="m52.875 31.312-11.844 11.844c1.1274 1.7746 1.6093 3.0157 1.1875 3.4375-0.01559 0.01559-0.04469 0.01806-0.0625 0.03125l-2.2812-2.3125-0.5 0.5 2.7188 2.6875 8.75 2.0312 6.7812-6.75-2.0312-8.7812-2.7188-2.6875z"/>
    </g>
    <path transform="matrix(2.9112 2.9112 -3.1515 3.1515 210.41 132.99)" d="m13.72796,10.9783v-7.44517l5.3994,3.11734c.43545.25651.47055.91841.04141,1.18658l-5.44081,3.14125z" fill-rule="evenodd"/>
    <path transform="translate(7.3614 -7.7812)" d="m103.7 28.358-14.698 14.698 122.58 122.58 11.611-11.611-1.9107-8.0839-9.8476-9.8476-107.74-107.74z" fill="#fff" fill-opacity=".52459" fill-rule="evenodd"/>
    <path transform="translate(7.3614 -7.7812)" d="m59.607 72.451-14.698 14.698 108.18 108.18 9.4067 9.4067 0.44093 0.14698 9.5537 2.2047 10.876-10.876-123.76-123.76z" fill="#808080" fill-opacity=".81967" fill-rule="evenodd"/>
    <path transform="matrix(4.3531 0 0 4.3531 18.749 -43.693)" d="m12.66984,24.34375-.03125.03125h-.03125l-.03125.03125-3.875,3.875 26.375,26.375 3.875-3.875 .03125-.03125c.00091-.0104.00091-.02085 0-.03125 .01442-.01858.02504-.03982.03125-.0625 .00091-.0104.00091-.02085 0-.03125l-.03125-.03125c.00091-.0104.00091-.02085 0-.03125l-.03125-.03125-26.125-26.125-.03125-.03125h-.03125c-.01858-.01442-.03982-.02504-.0625-.03125h-.03125zm-3.25,4.28125c.31548-.06492 1.02319.13566 1.9375.625s2.04187,1.23942 3.34375,2.21875c2.60376,1.95867 5.85308,4.79058 9.1875,8.125 3.55672,3.55672 6.56588,7 8.53125,9.6875 .98268,1.34375 1.68824,2.50161 2.09375,3.375 .20275.4367.33688.82084.375,1.09375 .02796.20013.0119.31447-.03125.40625l-25.5-25.5c.02612-.0088.02808-.02417.0625-.03125z" fill="#808080" fill-rule="evenodd" filter="url(#f)" opacity=".98"/>
    <path transform="matrix(4.3531 0 0 4.3531 18.749 -43.693)" d="m11.062 24.906-3.375 3.375 24.875 24.844 2.1562 2.1562 0.09375 0.03125 2.1875 0.5 2.5-2.5-28.438-28.406z" fill-opacity=".41569" fill-rule="evenodd"/>
    <path transform="translate(7.3614 -7.7812)" d="m221.28 145.94c0.56722 5.6736-4.1562 12.487-15.139 14.257-4.6476 18.645-14.167 27.345-29.249 29.543-2.9569 12.851-6.502 15.461-14.257 15.139l49.238 11.317c0.52883-3.1385 5.0469-8.2121 8.8009-11.966s9.2954-8.3241 12.07-8.9049l-11.464-49.385z" fill="#fd5" fill-rule="evenodd"/>
    <g transform="matrix(4.7033 4.7033 -4.5224 4.5224 173.47 -88.867)" fill="url(#a)">
     <path transform="matrix(.61897 0 0 .69686 27.512 20.444)" d="m13.72796,10.9783v-7.44517l5.3994,3.11734c.43545.25651.47055.91841.04141,1.18658l-5.44081,3.14125z" fill="url(#a)" fill-rule="evenodd"/>
    </g>
    <path transform="translate(7.3614 -7.7812)" d="m221.28 145.94c0.56722 5.6736-4.1562 12.487-15.139 14.257-4.6476 18.645-14.167 27.345-29.249 29.543-2.9569 12.851-6.502 15.461-14.257 15.139l49.238 11.317c0.52883-3.1385 5.0469-8.2121 8.8009-11.966s9.2954-8.3241 12.07-8.9049l-11.464-49.385z" fill="url(#j)" fill-rule="evenodd"/>
    <path transform="translate(7.3614 -7.7812)" d="m221.28 145.94c0.56722 5.6736-4.1562 12.487-15.139 14.257-4.6476 18.645-14.167 27.345-29.249 29.543-2.9569 12.851-6.502 15.461-14.257 15.139l49.238 11.317c0.52883-3.1385 5.0469-8.2121 8.8009-11.966s9.2954-8.3241 12.07-8.9049l-11.464-49.385z" fill="url(#i)" fill-rule="evenodd" opacity=".75709"/>
    <path transform="matrix(4.1729 4.1729 -9.9065 9.9065 135.27 -126.4)" d="m14.71 14.575c-1.848 0-3.3461-1.3285-3.3461-2.9673s1.4981-2.9673 3.3461-2.9673v5.9346z" fill="url(#b)" fill-rule="evenodd"/>
    <path transform="matrix(4.3531 0 0 4.3531 18.749 -43.693)" d="m50.57305,53.21002c.08255.0163.65806,2.64414.65806,2.64414 .76266,2.88653.91389,2.96624.17278,2.7427-.723-.35663-1.71004-1.51917-2.17111-2.1768-.44044-.67086-1.01934-1.73893.08043-2.57226 .38412-.35825.92033-.70483 1.25984-.63777z" fill="#fff" fill-opacity=".29918" fill-rule="evenodd" filter="url(#e)"/>
    <path transform="translate(7.3614 -7.7812)" d="m96.001 25.168c-12.561 0.02595-23.54 7.8688-32.648 15.78 5.8367-2.2938 11.508-5.2226 17.923-4.0247 6.1332 1.1452 4.4966 4.2585 7.7531 5.9979 3.5274-3.5274 11.198-11.097 14.725-14.624-2.0264-2.0528-4.9276-2.9823-7.7539-3.1288z" fill="#fff" fill-opacity=".18443" fill-rule="evenodd"/>
    <path d="m96.428 35.247 117.13 117.13" fill="#86eb86" fill-rule="evenodd" stroke="#929292" stroke-width="1.3075"/>
    <path d="m66.982 64.648 117.27 117.27" fill="none" stroke="#5f5f5f" stroke-width="1.3091"/>
   </g>
  </g>
 </g>
</svg>
